<?xml version="1.0" encoding="UTF-8" standalone="no"?>
<!-- Created with Inkscape (http://www.inkscape.org/) -->

<svg
   xmlns:dc="http://purl.org/dc/elements/1.1/"
   xmlns:cc="http://creativecommons.org/ns#"
   xmlns:rdf="http://www.w3.org/1999/02/22-rdf-syntax-ns#"
   xmlns:svg="http://www.w3.org/2000/svg"
   xmlns="http://www.w3.org/2000/svg"
   xmlns:sodipodi="http://sodipodi.sourceforge.net/DTD/sodipodi-0.dtd"
   xmlns:inkscape="http://www.inkscape.org/namespaces/inkscape"
   id="svg3004"
   version="1.1"
   inkscape:version="0.48.3.1 r9886"
   width="470"
   height="557"
   sodipodi:docname="vermont_map.png">
  <metadata
     id="metadata3010">
    <rdf:RDF>
      <cc:Work
         rdf:about="">
        <dc:format>image/svg+xml</dc:format>
        <dc:type
           rdf:resource="http://purl.org/dc/dcmitype/StillImage" />
        <dc:title></dc:title>
      </cc:Work>
    </rdf:RDF>
  </metadata>
  <defs
     id="defs3008" />
  <sodipodi:namedview
     pagecolor="#ffffff"
     bordercolor="#666666"
     borderopacity="1"
     objecttolerance="10"
     gridtolerance="10"
     guidetolerance="10"
     inkscape:pageopacity="0"
     inkscape:pageshadow="2"
     inkscape:window-width="1280"
     inkscape:window-height="741"
     id="namedview3006"
     showgrid="false"
     inkscape:zoom="0.90664273"
     inkscape:cx="235"
     inkscape:cy="282.21422"
     inkscape:window-x="0"
     inkscape:window-y="27"
     inkscape:window-maximized="1"
     inkscape:current-layer="svg3004" />
  <g
     id="g3016"
     transform="translate(-6.6178218,-1.1029703)">
    <path
       style="fill:#fdfefe"
       d="m 6.6178217,279.60297 0,-278.4999998 234.9999983,0 235,0 0,278.4999998 0,278.5 -235,0 -234.9999983,0 0,-278.5 z"
       id="path3032"
       inkscape:connector-curvature="0" />
    <path
       style="fill:#60dbd7"
       d="m 75.189251,544.53154 c -0.864286,-0.86428 -1.571429,-2.63577 -1.571429,-3.93664 0,-1.9375 -0.587713,-2.42188 -3.25,-2.67857 l -3.25,-0.31336 -0.255923,-80.13247 c -0.222461,-69.65495 -0.451278,-80.2946 -1.75,-81.37245 -0.821743,-0.68198 -1.494077,-2.30987 -1.494077,-3.61752 0,-1.95209 -0.514484,-2.37756 -2.875,-2.37756 -2.388715,0 -2.975584,0.50292 -3.469667,2.97333 -1.092302,5.46152 -7.684624,5.02288 -11.399985,-0.75851 -0.959558,-1.49315 -3.209557,-4.11795 -4.999999,-5.8329 l -3.255349,-3.11807 0,-10.99593 0,-10.99592 4,-2.772 c 3.066496,-2.12508 4,-3.43044 4,-5.59337 0,-2.02581 0.986902,-3.60882 3.499971,-5.614 3.449965,-2.75273 3.49997,-2.90161 3.5,-10.42019 2.1e-5,-5.56007 0.406611,-7.96498 1.500029,-8.87244 2.060981,-1.71046 2.060981,-10.57075 0,-11.36163 -0.871503,-0.33442 -1.5,-1.831 -1.5,-3.5718 0,-1.97275 -0.683169,-3.36182 -2,-4.06657 -1.878467,-1.00532 -2,-2.09382 -2,-17.91274 0,-13.75105 -0.275317,-17.07086 -1.5,-18.08726 -1.073119,-0.89061 -1.5,-3.24622 -1.5,-8.27728 0,-6.90361 -0.07325,-7.10208 -4,-10.8375 -3.743041,-3.56067 -4,-4.16702 -4,-9.43878 0,-4.79268 0.298563,-5.71176 2,-6.15669 1.1,-0.28766 2,-1.1297 2,-1.8712 0,-0.7415 0.9,-1.82985 2,-2.41855 1.827154,-0.97786 2,-2.09382 2,-12.91274 0,-9.3066 0.32119,-12.10893 1.5,-13.08726 0.982945,-0.81577 1.5,-3.04513 1.5,-6.46746 0,-3.95257 0.486348,-5.6627 2,-7.03254 1.829261,-1.65546 2,-3.07997 2,-16.68637 0,-12.30098 0.259682,-14.97605 1.5,-15.452 1.216639,-0.46687 1.5,-2.81563 1.5,-12.43344 0,-10.83437 0.172621,-11.95021 2,-12.92819 1.913108,-1.02386 2,-2.09382 2,-24.627454 0,-22.042891 0.128555,-23.720519 2,-26.099675 2.718108,-3.455515 2.718108,-9.818183 0,-11.272871 -1.741866,-0.932218 -2,-2.093823 -2,-9 0,-6.959319 -0.249752,-8.063296 -2.041036,-9.021962 -1.826514,-0.977521 -2.010446,-1.900878 -1.75,-8.785183 l 0.291036,-7.692855 193.999998,0 194,0 0.31955,2.25 c 0.24629,1.734165 0.97501,2.25 3.17857,2.25 1.57246,0 3.56617,0.707143 4.43045,1.571429 1.98079,1.980787 2.04134,8.425041 0.10323,10.987441 -0.84169,1.112813 -1.48176,4.164782 -1.5,7.152175 -0.0228,3.740918 -0.55627,5.71574 -1.89086,7 -1.02248,0.983925 -2.14476,2.981488 -2.49397,4.439029 -0.41239,1.721275 -1.64254,3.001335 -3.50991,3.652303 -3.78436,1.319233 -10.13706,7.736914 -10.13706,10.240744 0,1.08705 -0.9,2.747058 -2,3.688907 -2.83635,2.428561 -2.83635,11.107383 0,13.535944 1.1,0.941849 2,2.769552 2,4.061563 0,1.411376 1.39715,3.62049 3.5,5.534038 l 3.5,3.184927 0,23.28033 0,23.28034 -3.5,3.82111 c -1.925,2.10161 -3.5,4.66895 -3.5,5.7052 0,1.03625 -0.9,2.6547 -2,3.59655 -1.30995,1.12161 -2,2.94994 -2,5.29908 0,1.97265 -0.66069,4.46014 -1.4682,5.52776 -0.8075,1.06762 -1.4825,2.68363 -1.5,3.59113 -0.0175,0.9075 -1.6518,3.27 -3.6318,5.25 -2.79499,2.79499 -4.41619,3.60711 -7.25,3.6318 -2.0075,0.0175 -4.52351,0.6925 -5.59113,1.5 -1.4594,1.10384 -4.95597,1.4682 -14.08937,1.4682 l -12.14823,0 -3.70094,4 c -2.03552,2.2 -4.52624,4 -5.53494,4 -1.0087,0 -3.5535,1.575 -5.65511,3.5 -2.10162,1.925 -4.52068,3.51497 -5.3757,3.53327 -2.48966,0.0533 -6.05458,3.59133 -6.05458,6.00895 0,1.24359 -1.54082,3.67481 -3.5,5.52255 -3.18702,3.00575 -3.5,3.79963 -3.5,8.87787 0,4.33945 -0.44379,5.95692 -2,7.28939 -1.79618,1.53794 -2,2.94994 -2,13.85535 0,13.49486 0.17939,13.03558 -8.63314,22.103 -2.81012,2.8914 -5.04052,4.30962 -6.77766,4.30962 -2.54943,0 -2.5892,0.11227 -2.5892,7.30887 0,4.87833 -0.48824,7.95439 -1.4682,9.25 -0.8848,1.16982 -1.48083,4.2298 -1.5,7.70092 -0.0248,4.49665 -0.4704,6.13533 -2.0318,7.47224 -1.1,0.94185 -2,2.57022 -2,3.6186 0,1.04839 -2.475,4.24657 -5.5,7.10707 -5.23402,4.94941 -5.5,5.44174 -5.5,10.18048 0,2.83026 -0.63371,5.8174 -1.4682,6.92069 -0.8075,1.06762 -1.4825,2.95803 -1.5,4.20092 -0.0175,1.24288 -0.9318,3.03039 -2.0318,3.97224 -1.1,0.94185 -2,2.42643 -2,3.29908 0,0.87265 -0.66069,2.46014 -1.4682,3.52776 -0.8075,1.06762 -1.4825,2.73303 -1.5,3.70092 -0.0175,0.96788 -0.9318,2.53039 -2.0318,3.47224 -1.86466,1.59657 -2,2.94994 -2,20 0,17.05006 -0.13534,18.40342 -2,20 -1.51344,1.29584 -2,2.94994 -2,6.79908 0,2.9244 -0.6241,5.91177 -1.4682,7.02776 -1.03901,1.3737 -1.47749,4.64797 -1.5,11.20092 -0.0275,7.99891 -0.30413,9.49296 -2.0318,10.97224 -1.19816,1.0259 -2,2.94994 -2,4.79908 0,1.69765 -0.66069,3.96014 -1.4682,5.02776 -0.8075,1.06762 -1.4825,2.95803 -1.5,4.20092 -0.0175,1.24288 -0.9318,3.03039 -2.0318,3.97224 -1.82677,1.56413 -2,2.94994 -2,16 0,13.05006 -0.17323,14.43587 -2,16 -1.51344,1.29584 -2,2.94994 -2,6.79908 0,2.9244 -0.6241,5.91177 -1.4682,7.02776 -2.01896,2.66931 -2.01896,16.21295 0,18.88226 0.80751,1.06762 1.4682,3.28136 1.4682,4.91942 0,2.48129 2.08593,5.05666 12.5,15.43304 6.875,6.85011 12.5,13.02572 12.5,13.72359 0,0.69786 -0.7118,1.54199 -1.58179,1.87583 -0.86998,0.33385 -50.78784,0.60699 -110.92857,0.60699 -98.072831,0 -109.508799,-0.16202 -110.918209,-1.57143 z"
       id="path3030"
       inkscape:connector-curvature="0" />
    <path
       style="fill:#77f48f"
       d="m 75.617822,541.30297 c 0,-3.40062 -1.626364,-5.2 -4.7,-5.2 l -2.3,0 0,-78.91784 0,-78.91784 -2.552625,-5.08216 c -2.138131,-4.25692 -2.998741,-5.08216 -5.3,-5.08216 -3.351001,0 -5.147375,1.64024 -5.147375,4.7 0,1.86105 -0.54297,2.3 -2.845012,2.3 -2.721475,0 -6.154988,-2.58107 -6.154988,-4.62688 0,-0.53316 -1.560712,-2.52273 -3.468249,-4.42126 l -3.468248,-3.45186 -0.03175,-9.90407 -0.03175,-9.90407 4,-3.42386 c 2.478095,-2.12115 4,-4.28426 4,-5.68525 0,-1.31113 1.470736,-3.59973 3.5,-5.44632 3.39393,-3.08841 3.5,-3.40778 3.5,-10.53824 0,-5.31632 0.415524,-7.69816 1.5,-8.59819 2.049798,-1.70118 2.049798,-11.29882 0,-13 -0.825,-0.68469 -1.5,-2.24504 -1.5,-3.46746 0,-1.22241 -0.9,-3.03705 -2,-4.03254 -1.840053,-1.66523 -2,-3.07997 -2,-17.69017 0,-11.78085 -0.356868,-16.45193 -1.382447,-18.09501 -0.760345,-1.21815 -1.636028,-5.58982 -1.94596,-9.71482 -0.529258,-7.04407 -0.779569,-7.68882 -4.117554,-10.60598 -3.030051,-2.64805 -3.554039,-3.7342 -3.554039,-7.36702 0,-3.65757 0.5665,-4.81081 4,-8.14291 l 4,-3.88187 0,-11.57254 c 0,-8.95337 0.33949,-11.91203 1.5,-13.07254 0.94783,-0.94783 1.5,-3.40978 1.5,-6.68802 0,-4.10502 0.417503,-5.44876 2,-6.43705 1.855436,-1.15874 2,-2.33202 2,-16.23207 0,-13.18766 0.209699,-15.11367 1.75,-16.07307 1.526891,-0.95106 1.710144,-2.48365 1.437385,-12.02115 -0.280326,-9.8021 -0.09958,-11.20195 1.75,-13.55331 1.94791,-2.47636 2.062615,-3.90328 2.062615,-25.658588 0,-19.620985 0.234957,-23.296025 1.584746,-24.787525 0.87161,-0.963119 1.823854,-3.533808 2.116097,-5.712644 0.422977,-3.153525 0.09975,-4.393119 -1.584746,-6.077616 -1.779091,-1.779091 -2.116097,-3.312092 -2.116097,-9.625884 0,-6.272303 -0.329566,-7.791971 -2,-9.222241 -1.605756,-1.374891 -2,-2.949938 -2,-7.990213 l 0,-6.277759 192.339475,0 192.33949,0 1.13908,2.5 c 0.90111,1.977729 1.87473,2.5 4.66051,2.5 l 3.52144,0 0,4.877555 c 0,3.115654 -0.54184,5.327242 -1.5,6.122445 -1.00871,0.837152 -1.5,3.091175 -1.5,6.881898 0,4.554002 -0.38425,5.876976 -2,6.886029 -1.1,0.686961 -2,2.321424 -2,3.632139 0,1.687004 -0.7069,2.560538 -2.42003,2.990508 -3.40229,0.85392 -11.57997,9.291379 -11.57997,11.947827 0,1.199278 -0.9,2.742565 -2,3.429526 -1.60496,1.002315 -2,2.332028 -2,6.732073 0,4.400045 0.39504,5.729758 2,6.732073 1.18444,0.739695 2,2.332027 2,3.904882 0,1.783262 1.14995,3.665527 3.5,5.728901 l 3.5,3.073044 0,23.40486 0,23.40486 -3.5,3.8211 c -1.925,2.10162 -3.5,4.74993 -3.5,5.88515 0,1.13522 -0.9,2.6261 -2,3.31306 -1.50424,0.93941 -2,2.33202 -2,5.6181 0,2.66368 -0.5855,4.855 -1.5,5.61397 -0.825,0.68469 -1.5,2.06933 -1.5,3.07699 0,3.28849 -4.6845,6.92301 -8.92301,6.92301 -2.18636,0 -4.36673,0.64419 -5.07699,1.5 -0.98817,1.19067 -3.89005,1.5 -14.07176,1.5 l -12.82687,0 -3.04606,3.25 c -1.67533,1.7875 -3.04814,3.5875 -3.05068,4 -0.003,0.4125 -1.04169,0.75 -2.30921,0.75 -1.26752,0 -4.02408,1.575 -6.1257,3.5 -2.10161,1.925 -4.46957,3.5 -5.26213,3.5 -0.79257,0 -2.98601,1.17841 -4.87431,2.61869 -2.48558,1.89584 -3.43328,3.39998 -3.43328,5.44911 0,2.05961 -0.95316,3.55743 -3.5,5.5 -3.3302,2.54007 -3.5,2.96748 -3.5,8.81034 0,5.05776 -0.35273,6.36105 -2,7.38979 -1.82853,1.14193 -2.00136,2.34143 -2.01581,13.99054 l -0.0158,12.74153 -5.25382,5.75 c -3.74701,4.10086 -5.97957,5.75 -7.78421,5.75 -4.07195,0 -4.93036,1.75457 -4.93036,10.07756 0,5.60454 -0.40501,8.01368 -1.5,8.92244 -1.03515,0.8591 -1.5,3.14673 -1.5,7.3819 0,5.054 -0.35294,6.35742 -2,7.38603 -1.1,0.68696 -2,2.28178 -2,3.54404 0,1.52752 -1.83932,3.91637 -5.5,7.14323 -5.46181,4.81455 -5.5,4.88796 -5.5,10.57406 0,3.86969 -0.48626,6.12941 -1.5,6.97074 -0.825,0.68469 -1.5,2.43154 -1.5,3.8819 0,1.554 -0.82139,3.14997 -2,3.88603 -1.1,0.68696 -2,2.3151 -2,3.6181 0,1.30299 -0.675,2.92928 -1.5,3.61397 -0.825,0.68469 -1.5,2.20654 -1.5,3.3819 0,1.17535 -0.9,2.69907 -2,3.38603 -1.88449,1.17688 -2,2.33202 -2,20 0,17.66797 -0.11551,18.82312 -2,20 -1.63095,1.01854 -2,2.33202 -2,7.1181 0,3.99701 -0.47846,6.26617 -1.5,7.11397 -1.14345,0.94898 -1.5,3.53562 -1.5,10.8819 0,8.554 -0.22476,9.77737 -2,10.88603 -1.44017,0.8994 -2,2.33202 -2,5.1181 0,2.21923 -0.63963,4.39992 -1.5,5.11397 -0.825,0.68469 -1.5,2.43154 -1.5,3.8819 0,1.554 -0.82139,3.14997 -2,3.88603 -1.85316,1.15732 -2,2.33202 -2,16 0,13.66797 -0.14684,14.84268 -2,16 -1.63095,1.01854 -2,2.33202 -2,7.1181 0,3.99701 -0.47846,6.26617 -1.5,7.11397 -1.09737,0.91074 -1.5,3.32652 -1.5,9 0,5.67348 0.40263,8.08926 1.5,9 0.825,0.68469 1.50808,2.87729 1.51795,4.87244 0.0164,3.31491 1.13685,4.73612 13,16.4896 7.14013,7.07413 12.98205,13.03663 12.98205,13.25 0,0.21338 -49.95,0.38796 -111,0.38796 l -110.999995,0 0,-2.8 z M 106.31081,530.372 c -0.25354,-0.97297 -0.47766,-0.41903 -0.49804,1.23097 -0.0204,1.65 0.18707,2.44606 0.46099,1.76903 0.27392,-0.67703 0.2906,-2.02703 0.0371,-3 z m 6.69128,-0.26903 c 0.96954,-1.30346 0.88643,-1.32017 -0.63427,-0.12756 -0.9625,0.75485 -1.71447,2.10485 -1.67105,3 0.066,1.36145 0.16974,1.38231 0.63427,0.12756 0.30543,-0.825 1.0574,-2.175 1.67105,-3 z m 2.97334,-7 c 0.99355,-1.30457 0.91438,-1.32119 -0.60761,-0.12756 -0.9625,0.75485 -1.6978,2.32985 -1.634,3.5 0.11018,2.02079 0.14067,2.02719 0.60761,0.12756 0.27038,-1.1 1.00568,-2.675 1.634,-3.5 z m 5.9803,-6.94697 c -0.21918,-0.24583 -1.62238,0.84047 -3.11821,2.41401 l -2.7197,2.86098 3.11822,-2.41401 c 1.71502,-1.32771 2.93888,-2.61515 2.71969,-2.86098 z m -7.21035,0.19697 c 1.24387,-1.58606 1.2085,-1.62143 -0.37756,-0.37756 -1.66575,1.30637 -2.19548,2.12756 -1.37244,2.12756 0.20765,0 0.99515,-0.7875 1.75,-1.75 z m 4,-3 c 1.24387,-1.58606 1.2085,-1.62143 -0.37756,-0.37756 -1.66575,1.30637 -2.19548,2.12756 -1.37244,2.12756 0.20765,0 0.99515,-0.7875 1.75,-1.75 z m 3.67931,-3.77646 c -0.30789,-0.30789 -0.86705,0.24711 -1.24258,1.23333 -0.54268,1.4252 -0.42782,1.54006 0.5598,0.5598 0.68342,-0.67834 0.99067,-1.48524 0.68278,-1.79313 z m 6.8755,-4.97354 c 0.14595,-1.43937 0.0615,-1.52669 -0.30127,-0.31149 -0.27723,0.92867 -1.4889,1.90239 -2.69258,2.1638 -1.83423,0.39836 -1.78546,0.44878 0.30126,0.31149 1.69005,-0.11118 2.55493,-0.80622 2.69259,-2.1638 z m 8.45229,-0.29725 c -1.30093,-0.20464 -2.77757,0.0402 -3.28141,0.544 -0.55478,0.55478 0.37811,0.70153 2.36533,0.37209 2.77692,-0.46036 2.91777,-0.60121 0.91608,-0.91609 z m 1.505,-6.47235 c 0.0994,-1.12225 -0.0115,-1.23582 -0.30313,-0.31047 -0.25294,0.80252 -1.44463,1.64226 -2.64821,1.8661 -1.80267,0.33524 -1.74924,0.38996 0.30313,0.31047 1.61539,-0.0626 2.54657,-0.71874 2.64821,-1.8661 z m 6.05333,-1.46137 c -0.25354,-0.97297 -0.47766,-0.41903 -0.49804,1.23097 -0.0204,1.65 0.18706,2.44606 0.46099,1.76903 0.27392,-0.67703 0.29059,-2.02703 0.0371,-3 z m -10.93133,-3.95611 c -0.95609,-0.25029 -2.75609,-0.25937 -4,-0.0202 -1.24391,0.23919 -0.46166,0.44398 1.73834,0.45508 2.2,0.0111 3.21775,-0.18461 2.26166,-0.4349 z m -8.07855,-4.50042 c -0.31922,-0.79773 -0.55618,-0.56078 -0.60416,0.60417 -0.0434,1.05416 0.19292,1.64479 0.52522,1.3125 0.33229,-0.33229 0.36781,-1.1948 0.0789,-1.91667 z m 8.82014,-0.55256 c -1.64821,-0.24223 -3.32882,-0.9623 -3.73469,-1.60017 -0.48443,-0.76136 -0.74319,-0.78762 -0.75325,-0.0764 -0.0256,1.80873 1.1689,2.42392 4.40136,2.26684 l 3.08333,-0.14983 -2.99675,-0.4404 z m -9.81026,-5.99091 c -0.25354,-0.97297 -0.47766,-0.41903 -0.49804,1.23097 -0.0204,1.65 0.18706,2.44606 0.46099,1.76903 0.27392,-0.67703 0.29059,-2.02703 0.037,-3 z m 11.80701,-6.27403 3,-3.495 -3.25,2.93709 c -1.7875,1.6154 -3.25,3.3779 -3.25,3.91667 0,0.53876 0.1125,0.78983 0.25,0.55791 0.1375,-0.23191 1.6,-1.99441 3.25,-3.91667 z m -7.69313,0.47854 c -0.30789,-0.30789 -0.86705,0.24711 -1.24258,1.23333 -0.54268,1.4252 -0.42782,1.54006 0.5598,0.5598 0.68342,-0.67834 0.99067,-1.48524 0.68278,-1.79313 z m 5.99131,-8.10172 c -0.32972,-2.64362 -0.39943,-2.5739 -0.87727,0.87727 -0.29765,2.14974 -0.14485,3.37485 0.35817,2.87183 0.4825,-0.4825 0.71609,-2.1696 0.5191,-3.7491 z m 4.90755,-2.62182 c -0.23835,-1.2375 -0.43337,-0.225 -0.43337,2.25 0,2.475 0.19502,3.4875 0.43337,2.25 0.23836,-1.2375 0.23836,-3.2625 0,-4.5 z m -7.981,-14.98209 c -0.22256,-1.79735 -0.40925,-0.56791 -0.41486,2.73209 -0.006,3.3 0.17648,4.77056 0.40466,3.26791 0.22817,-1.50265 0.23276,-4.20265 0.0102,-6 z m 5.45687,2.80224 c 0.22023,-1.88642 0.0445,-3.20987 -0.39059,-2.94099 -0.78299,0.48392 -1.153,6.37084 -0.40042,6.37084 0.21483,0 0.57079,-1.54343 0.79101,-3.42985 z m 6.20267,-12.57015 c 0.96954,-1.30346 0.88643,-1.32017 -0.63427,-0.12756 -0.9625,0.75485 -1.71447,2.10485 -1.67105,3 0.066,1.36145 0.16974,1.38231 0.63427,0.12756 0.30543,-0.825 1.0574,-2.175 1.67105,-3 z m -6.72199,-1.25 c -0.27741,-0.6875 -0.50439,-0.125 -0.50439,1.25 0,1.375 0.22698,1.9375 0.50439,1.25 0.27741,-0.6875 0.27741,-1.8125 0,-2.5 z m 8.57669,-3.21974 c 0.25966,-1.35835 0.0871,-2.2318 -0.38343,-1.94098 -0.82856,0.51208 -1.24587,4.41072 -0.47212,4.41072 0.21089,0 0.59588,-1.11138 0.85555,-2.46974 z m -5.33635,-1.96097 c -0.26308,-0.26308 -1.07408,0.5137 -1.80223,1.72619 -1.26492,2.10631 -1.24361,2.12762 0.47833,0.47833 0.99123,-0.94941 1.58698,-1.94144 1.3239,-2.20452 z m 3.89556,-7.19747 c -0.32972,-2.64362 -0.39943,-2.5739 -0.87727,0.87727 -0.29765,2.14974 -0.14485,3.37485 0.35817,2.87183 0.4825,-0.4825 0.71609,-2.1696 0.5191,-3.7491 z m 4.89481,0.89721 c -0.25354,-0.97297 -0.47766,-0.41903 -0.49804,1.23097 -0.0204,1.65 0.18706,2.44606 0.46099,1.76903 0.27392,-0.67703 0.29059,-2.02703 0.0371,-3 z m -1,-7 c -0.25354,-0.97297 -0.47766,-0.41903 -0.49804,1.23097 -0.0204,1.65 0.18706,2.44606 0.46099,1.76903 0.27392,-0.67703 0.29059,-2.02703 0.0371,-3 z m -5.00366,-3.01903 c -0.25153,-0.9625 -0.45733,-0.175 -0.45733,1.75 0,1.925 0.2058,2.7125 0.45733,1.75 0.25152,-0.9625 0.25152,-2.5375 0,-3.5 z m 7.5292,-6.42985 c 0.19992,-2.02392 0.008,-3.45987 -0.42752,-3.19099 -0.43506,0.26888 -0.75548,2.37482 -0.71206,4.67986 0.0886,4.7042 0.59294,4.0453 1.13958,-1.48887 z m -5.5128,-4.07015 c -0.23835,-1.2375 -0.43337,-0.225 -0.43337,2.25 0,2.475 0.19502,3.4875 0.43337,2.25 0.23836,-1.2375 0.23836,-3.2625 0,-4.5 z m 9.42183,-1.5 c 1.24387,-1.58606 1.2085,-1.62143 -0.37756,-0.37756 -0.9625,0.75485 -1.75,1.54235 -1.75,1.75 0,0.82304 0.82119,0.29331 2.12756,-1.37244 z m -5,-4 c 1.24387,-1.58606 1.2085,-1.62143 -0.37756,-0.37756 -0.9625,0.75485 -1.75,1.54235 -1.75,1.75 0,0.82304 0.82119,0.29331 2.12756,-1.37244 z m 11.18392,-2.60231 c 1.83423,-0.39836 1.78546,-0.44878 -0.30126,-0.31149 -1.41745,0.0932 -2.53566,0.80984 -2.5963,1.6638 -0.0586,0.825 0.077,0.96517 0.30127,0.31149 0.22428,-0.65367 1.39261,-1.40239 2.59629,-1.6638 z m 1.38151,-11.37866 c -0.25354,-0.97297 -0.47766,-0.41903 -0.49804,1.23097 -0.0204,1.65 0.18706,2.44606 0.46099,1.76903 0.27392,-0.67703 0.29059,-2.02703 0.0371,-3 z m 5.59712,1.72959 c 0.28785,-1.10076 0.11534,-1.7492 -0.38337,-1.44098 -0.49871,0.30822 -0.90674,1.20884 -0.90674,2.00138 0,2.06975 0.6795,1.77459 1.29011,-0.5604 z m 3.83745,-3.74862 c 1.24387,-1.58606 1.2085,-1.62143 -0.37756,-0.37756 -1.66575,1.30637 -2.19548,2.12756 -1.37244,2.12756 0.20765,0 0.99515,-0.7875 1.75,-1.75 z m -5,-3 c 1.24387,-1.58606 1.2085,-1.62143 -0.37756,-0.37756 -0.9625,0.75485 -1.75,1.54235 -1.75,1.75 0,0.82304 0.82119,0.29331 2.12756,-1.37244 z m 10.20414,-8.24599 c 1.01764,-1.31005 0.94262,-1.32702 -0.5817,-0.13157 -1.16274,0.91189 -1.6963,2.58977 -1.58996,5 l 0.16003,3.62756 0.42167,-3.49599 c 0.23192,-1.92279 0.9474,-4.17279 1.58996,-5 z m -6.53759,3.35221 c -0.29142,-1.37482 -0.54288,-1.12336 -0.96961,0.9696 -0.37205,1.82482 -0.23268,2.48236 0.39346,1.85622 0.53328,-0.53328 0.79255,-1.8049 0.57615,-2.82582 z m 3.10851,-5.78693 c -0.26308,-0.26308 -1.07408,0.5137 -1.80223,1.72619 -1.26492,2.10631 -1.24361,2.12762 0.47833,0.47833 0.99123,-0.94941 1.58698,-1.94144 1.3239,-2.20452 z m 1.78049,-5.75679 c -0.31922,-0.79773 -0.55618,-0.56078 -0.60416,0.60417 -0.0434,1.05416 0.19292,1.64479 0.52522,1.3125 0.33229,-0.33229 0.36781,-1.1948 0.0789,-1.91667 z m 4.04162,-9.04459 c -0.22256,-1.79735 -0.40925,-0.56791 -0.41486,2.73209 -0.006,3.3 0.17648,4.77056 0.40466,3.26791 0.22817,-1.50265 0.23276,-4.20265 0.0102,-6 z m -4.99493,-3.49561 c -0.21648,-2.07476 -0.39722,-0.6223 -0.40166,3.2277 -0.004,3.85 0.17268,5.54754 0.39359,3.7723 0.22091,-1.77523 0.22454,-4.92523 0.008,-7 z m 3.93248,-11.5223 c -0.27741,-0.6875 -0.50439,-0.125 -0.50439,1.25 0,1.375 0.22698,1.9375 0.50439,1.25 0.27741,-0.6875 0.27741,-1.8125 0,-2.5 z m -8.05954,-2.57583 c -1.50588,-1.50588 -1.53363,-1.4251 -0.36607,1.06552 0.69483,1.48221 1.42806,2.21545 1.6294,1.62941 0.20134,-0.58604 -0.36716,-1.79876 -1.26333,-2.69493 z m -3.69757,-6.52834 c -2.19781,-2.02328 -2.23311,-2.02711 -0.61805,-0.0671 0.94208,1.14331 1.74841,2.71831 1.79183,3.5 0.064,1.15149 0.18127,1.16423 0.61805,0.0671 0.29651,-0.74479 -0.50981,-2.31979 -1.79183,-3.5 z m 7.75074,0.88686 c -0.63575,-1.35702 -1.31095,-2.01689 -1.50045,-1.46638 -0.1895,0.55051 0.2031,1.6608 0.87244,2.46731 1.75552,2.11527 1.94583,1.81195 0.62801,-1.00093 z m -4.31083,-6.07582 c -0.32569,-0.84872 -0.80663,-1.32866 -1.06875,-1.06653 -0.26213,0.26213 -0.17998,0.95654 0.18255,1.54313 0.98605,1.59546 1.56238,1.28551 0.8862,-0.4766 z m -7.76636,-2.23068 c -1.72194,-1.64929 -1.74325,-1.62798 -0.47833,0.47833 0.72815,1.21249 1.53915,1.98927 1.80223,1.72619 0.26308,-0.26308 -0.33267,-1.25511 -1.3239,-2.20452 z m -1.57872,-2.5712 c 0,-0.18976 -1.0125,-1.20226 -2.25,-2.25 l -2.25,-1.90499 1.90499,2.25 c 1.79022,2.11444 2.59501,2.70524 2.59501,1.90499 z m 7,-1.03255 c 0,-0.20765 -0.7875,-0.99515 -1.75,-1.75 -1.58606,-1.24387 -1.62143,-1.2085 -0.37756,0.37756 1.30637,1.66575 2.12756,2.19548 2.12756,1.37244 z m -6.82569,-6.93689 c -1.19587,-1.27295 -2.20984,-2.96045 -2.25326,-3.75 -0.0613,-1.11389 -0.1973,-1.13944 -0.60716,-0.11407 -0.46461,1.16236 3.21702,6.17852 4.53474,6.17852 0.275,0 -0.47844,-1.0415 -1.67432,-2.31445 z m -10.4912,-6.87305 c -0.31922,-0.79773 -0.55618,-0.56078 -0.60416,0.60417 -0.0434,1.05416 0.19292,1.64479 0.52522,1.3125 0.33229,-0.33229 0.36781,-1.1948 0.0789,-1.91667 z m -7.94807,-20.5625 c -0.206,-2.6125 -0.37454,-0.475 -0.37454,4.75 0,5.225 0.16854,7.3625 0.37454,4.75 0.206,-2.6125 0.206,-6.8875 0,-9.5 z m 5.47264,2.59545 c 0.16078,-2.56 -0.0452,-4.44595 -0.45768,-4.19098 -0.4125,0.25496 -0.68872,3.24951 -0.61382,6.65455 0.14216,6.46264 0.57315,5.47172 1.0715,-2.46357 z m 7.47543,-20.03295 c -0.31922,-0.79773 -0.55618,-0.56078 -0.60416,0.60417 -0.0434,1.05416 0.19292,1.64479 0.52522,1.3125 0.33229,-0.33229 0.36781,-1.1948 0.0789,-1.91667 z m -5,-2 c -0.31922,-0.79773 -0.55618,-0.56078 -0.60416,0.60417 -0.0434,1.05416 0.19292,1.64479 0.52522,1.3125 0.33229,-0.33229 0.36781,-1.1948 0.0789,-1.91667 z m 10.59917,-32.74893 c 1.0722,-1.37672 1.00859,-1.39956 -0.53228,-0.19113 -1.5241,1.19529 -1.72209,3.00248 -1.53378,14 l 0.21622,12.62756 0.31606,-12.43643 c 0.19799,-7.79077 0.77093,-13.0205 1.53378,-14 z m -6.53889,4.73018 c -0.1903,-4.01156 -0.34727,-0.99375 -0.34883,6.70625 -0.002,7.7 0.15414,10.98219 0.34599,7.29375 0.19186,-3.68844 0.19314,-9.98844 0.003,-14 z m 7.96387,-12.03209 c -0.23919,-1.24391 -0.44398,-0.46166 -0.45508,1.73834 -0.0111,2.2 0.18461,3.21775 0.4349,2.26166 0.25029,-0.95609 0.25937,-2.75609 0.0202,-4 z m -4.85709,-1.1341 -0.14983,-3.12756 -0.43866,3 c -0.24126,1.65 -0.96133,3.675 -1.60017,4.5 -1.01083,1.30541 -0.93449,1.32196 0.58849,0.12756 1.08011,-0.84709 1.69265,-2.56966 1.60017,-4.5 z m 9.87456,-18.85965 c -0.22256,-1.79735 -0.40925,-0.56791 -0.41486,2.73209 -0.006,3.3 0.17648,4.77056 0.40466,3.26791 0.22817,-1.50265 0.23276,-4.20265 0.0102,-6 z m -5.0354,1.48209 c -0.25153,-0.9625 -0.45733,-0.175 -0.45733,1.75 0,1.925 0.2058,2.7125 0.45733,1.75 0.25152,-0.9625 0.25152,-2.5375 0,-3.5 z m -1.96593,-13.5 c -0.22183,-1.7875 -0.40333,-0.325 -0.40333,3.25 0,3.575 0.1815,5.0375 0.40333,3.25 0.22182,-1.7875 0.22182,-4.7125 0,-6.5 z m 4.96593,1.5 c -0.25153,-0.9625 -0.45733,-0.175 -0.45733,1.75 0,1.925 0.2058,2.7125 0.45733,1.75 0.25152,-0.9625 0.25152,-2.5375 0,-3.5 z m 2.0164,-10.5 c -0.23835,-1.2375 -0.43337,-0.225 -0.43337,2.25 0,2.475 0.19502,3.4875 0.43337,2.25 0.23836,-1.2375 0.23836,-3.2625 0,-4.5 z m -7.04345,-5 c -0.27741,-0.6875 -0.50439,-0.125 -0.50439,1.25 0,1.375 0.22698,1.9375 0.50439,1.25 0.27741,-0.6875 0.27741,-1.8125 0,-2.5 z m -1.93888,-13 c -0.22183,-1.7875 -0.40333,-0.325 -0.40333,3.25 0,3.575 0.1815,5.0375 0.40333,3.25 0.22182,-1.7875 0.22182,-4.7125 0,-6.5 z m 5.00133,0.0179 c -0.22256,-1.79735 -0.40925,-0.56791 -0.41486,2.73209 -0.006,3.3 0.17648,4.77056 0.40466,3.26791 0.22817,-1.50265 0.23276,-4.20265 0.0102,-6 z m -8.00848,-15.5179 c -0.22912,-1.5125 -0.41659,-0.275 -0.41659,2.75 0,3.025 0.18747,4.2625 0.41659,2.75 0.22913,-1.5125 0.22913,-3.9875 0,-5.5 z m 4.97308,2 c -0.25153,-0.9625 -0.45733,-0.175 -0.45733,1.75 0,1.925 0.2058,2.7125 0.45733,1.75 0.25152,-0.9625 0.25152,-2.5375 0,-3.5 z m 9.34364,-10.75 c 1.35701,-1.85001 1.33579,-1.89707 -0.28297,-0.62756 -0.9625,0.75485 -1.75,1.84235 -1.75,2.41667 0,0.57432 0.12734,0.85672 0.28297,0.62756 0.15563,-0.22917 0.94313,-1.31667 1.75,-2.41667 z m -6.34986,-1.6875 c -0.31922,-0.79773 -0.55618,-0.56078 -0.60416,0.60417 -0.0434,1.05416 0.19292,1.64479 0.52522,1.3125 0.33229,-0.3323 0.36781,-1.1948 0.0789,-1.91667 z m 2.44445,-3.5625 c 1.24387,-1.58606 1.2085,-1.62143 -0.37756,-0.37756 -1.66575,1.30637 -2.19548,2.12756 -1.37244,2.12756 0.20765,0 0.99515,-0.7875 1.75,-1.75 z m 9.56543,-4.98097 c -0.25354,-0.97297 -0.47766,-0.41903 -0.49804,1.23097 -0.0204,1.65 0.18706,2.44606 0.46099,1.76903 0.27392,-0.67703 0.29059,-2.02703 0.0371,-3 z m -4.89888,-1.91281 c -0.29142,-1.37482 -0.54288,-1.12336 -0.96961,0.9696 -0.37205,1.82482 -0.23268,2.48236 0.39346,1.85622 0.53328,-0.53328 0.79255,-1.8049 0.57615,-2.82582 z m 8.84967,-2.15033 c -1.02092,-0.2164 -2.29254,0.0429 -2.82582,0.57615 -0.62614,0.62614 0.0314,0.76551 1.85622,0.39346 2.09296,-0.42673 2.34442,-0.67819 0.9696,-0.96961 z m 7.48378,-2.95589 c 1.24387,-1.58606 1.2085,-1.62143 -0.37756,-0.37756 -1.66575,1.30637 -2.19548,2.12756 -1.37244,2.12756 0.20765,0 0.99515,-0.7875 1.75,-1.75 z m -9.87756,-1.91228 c -0.6875,-0.27741 -1.8125,-0.27741 -2.5,0 -0.6875,0.27741 -0.125,0.50439 1.25,0.50439 1.375,0 1.9375,-0.22698 1.25,-0.50439 z m 11.44299,-5.06869 c -0.25354,-0.97297 -0.47766,-0.41903 -0.49804,1.23097 -0.0204,1.65 0.18706,2.44606 0.46099,1.76903 0.27392,-0.67703 0.29059,-2.02703 0.0371,-3 z m -5.00366,-3.01903 c -0.25153,-0.9625 -0.45733,-0.175 -0.45733,1.75 0,1.925 0.2058,2.7125 0.45733,1.75 0.25152,-0.9625 0.25152,-2.5375 0,-3.5 z m 9.34364,-6.75 c 1.35701,-1.85001 1.33579,-1.89707 -0.28297,-0.62756 -0.9625,0.75485 -1.75,1.84235 -1.75,2.41667 0,0.57432 0.12734,0.85672 0.28297,0.62756 0.15563,-0.22917 0.94313,-1.31667 1.75,-2.41667 z m -6.34986,-1.6875 c -0.31922,-0.79773 -0.55618,-0.56078 -0.60416,0.60417 -0.0434,1.05416 0.19292,1.64479 0.52522,1.3125 0.33229,-0.3323 0.36781,-1.1948 0.0789,-1.91667 z m 8.03447,-7.54875 c -0.22985,-1.520063 -0.42406,-0.51375 -0.43157,2.23625 -0.007,2.75 0.18056,3.99369 0.41792,2.76375 0.23736,-1.22994 0.24351,-3.47994 0.0136,-5 z m -4.81496,2.30554 c -0.26308,-0.26308 -1.07408,0.5137 -1.80223,1.72619 -1.26492,2.10631 -1.24361,2.12762 0.47833,0.47833 0.99123,-0.94941 1.58698,-1.94144 1.3239,-2.20452 z m -1.17189,-15.849463 c -0.20972,-2.320905 -0.37882,-0.169827 -0.37577,4.780173 0.003,4.95 0.17464,6.848922 0.38131,4.219827 0.20668,-2.629095 0.20418,-6.679095 -0.006,-9 z m 4.98685,2.543923 c -0.22985,-1.520063 -0.42406,-0.51375 -0.43157,2.23625 -0.007,2.75 0.18056,3.993687 0.41792,2.76375 0.23736,-1.229938 0.24351,-3.479938 0.0136,-5 z m 9.04408,-0.95083 c -0.95609,-0.250293 -2.75609,-0.259374 -4,-0.02018 -1.24391,0.239193 -0.46166,0.443978 1.73834,0.455078 2.2,0.0111 3.21775,-0.184605 2.26166,-0.434897 z m -0.3193,-6.219661 c 0.30822,-0.498708 -0.34022,-0.671224 -1.44098,-0.383369 -2.33499,0.610613 -2.63015,1.29011 -0.5604,1.29011 0.79254,0 1.69316,-0.408034 2.00138,-0.906741 z m 10.91525,-6.093259 c 0.99355,-1.304567 0.91438,-1.321186 -0.60761,-0.127555 -0.9625,0.754844 -1.6978,2.329844 -1.634,3.5 0.11018,2.020781 0.14067,2.027182 0.60761,0.127555 0.27038,-1.1 1.00568,-2.675 1.634,-3.5 z m -18.62844,3.395833 c -0.3323,-0.332291 -1.1948,-0.367818 -1.91667,-0.07895 -0.79773,0.319226 -0.56078,0.556183 0.60417,0.604167 1.05416,0.04342 1.64479,-0.192928 1.3125,-0.52522 z m 12.05859,-3.532543 c -0.24965,-0.748946 -0.70294,-0.295653 -1.05655,1.056551 -0.43497,1.663345 -0.30483,2.053777 0.43724,1.311709 0.5811,-0.581102 0.85979,-1.646819 0.61931,-2.36826 z m 8.5938,-3.415228 c 0.34149,-0.889925 0.17385,-1.291322 -0.39301,-0.940983 -0.5437,0.336025 -0.98855,1.034397 -0.98855,1.551938 0,1.438432 0.71677,1.121462 1.38156,-0.610955 z M 227.11782,59.10297 c 0.99549,-1.1 1.58498,-2 1.30998,-2 -0.275,0 -1.31449,0.9 -2.30998,2 -0.99549,1.1 -1.58498,2 -1.30998,2 0.275,0 1.31449,-0.9 2.30998,-2 z m -3.81689,-8.1875 c -0.31922,-0.797733 -0.55618,-0.560776 -0.60416,0.604167 -0.0434,1.054166 0.19292,1.644791 0.52522,1.3125 0.33229,-0.332292 0.36781,-1.194792 0.0789,-1.916667 z m 5.04669,-8.540196 c -0.21648,-2.074767 -0.39722,-0.622304 -0.40166,3.227696 -0.004,3.85 0.17268,5.547537 0.39359,3.772304 0.22091,-1.775232 0.22454,-4.925232 0.008,-7 z m -6.03681,1.996728 c -0.25354,-0.972968 -0.47766,-0.419032 -0.49804,1.230968 -0.0204,1.65 0.18706,2.446064 0.46099,1.769032 0.27392,-0.677033 0.29059,-2.027033 0.0371,-3 z m 0.99634,-8.019032 c -0.25153,-0.9625 -0.45733,-0.175 -0.45733,1.75 0,1.925 0.2058,2.7125 0.45733,1.75 0.25152,-0.9625 0.25152,-2.5375 0,-3.5 z m 8.02692,-10 c -0.22912,-1.5125 -0.41659,-0.275 -0.41659,2.75 0,3.025 0.18747,4.2625 0.41659,2.75 0.22913,-1.5125 0.22913,-3.9875 0,-5.5 z m -5.00899,-0.488341 c -0.23919,-1.243912 -0.44398,-0.461659 -0.45508,1.738341 -0.0111,2.2 0.18461,3.217747 0.4349,2.261659 0.25029,-0.956087 0.25937,-2.756087 0.0202,-4 z"
       id="path3028"
       inkscape:connector-curvature="0" />
    <path
       style="fill:#2cd6b9"
       d="m 75.617822,541.30297 c 0,-3.40062 -1.626364,-5.2 -4.7,-5.2 l -2.3,0 0,-78.91784 0,-78.91784 -2.552625,-5.08216 c -2.138131,-4.25692 -2.998741,-5.08216 -5.3,-5.08216 -3.351001,0 -5.147375,1.64024 -5.147375,4.7 0,1.86105 -0.54297,2.3 -2.845012,2.3 -2.721475,0 -6.154988,-2.58107 -6.154988,-4.62688 0,-0.53316 -1.560712,-2.52273 -3.468249,-4.42126 l -3.468248,-3.45186 -0.03175,-9.90407 -0.03175,-9.90407 4,-3.42386 c 2.478095,-2.12115 4,-4.28426 4,-5.68525 0,-1.31113 1.470736,-3.59973 3.5,-5.44632 3.39393,-3.08841 3.5,-3.40778 3.5,-10.53824 0,-5.31632 0.415524,-7.69816 1.5,-8.59819 2.049798,-1.70118 2.049798,-11.29882 0,-13 -0.825,-0.68469 -1.5,-2.24504 -1.5,-3.46746 0,-1.22241 -0.9,-3.03705 -2,-4.03254 -1.848242,-1.67264 -1.998838,-3.06919 -1.984687,-18.40499 0.01023,-11.08398 0.337232,-16.09688 0.984687,-15.09501 0.533156,0.825 0.976265,7.81249 0.984687,15.52776 0.01395,12.77963 0.193264,14.18012 2.015313,15.74021 1.1,0.94185 2.014312,2.72936 2.031803,3.97224 0.01749,1.24289 0.692492,3.1333 1.5,4.20092 1.971614,2.60671 1.971614,13.51103 0,16.11774 -0.96768,1.27939 -1.479038,4.40443 -1.5,9.16688 -0.03067,6.96794 -0.156679,7.33938 -3.531803,10.41068 -2.034908,1.85172 -3.5,4.13426 -3.5,5.45282 0,2.37875 -1.692962,4.50824 -5.640311,7.09464 -2.164443,1.4182 -2.359689,2.22979 -2.359689,9.80868 0,6.09308 0.390504,8.58663 1.487265,9.49686 1.956569,1.62381 4.512735,0.57531 4.512735,-1.85106 0,-2.41033 1.858251,-3.13837 8.010359,-3.13837 5.002515,0 7.989641,1.74364 7.989641,4.6637 0,0.83646 0.9,2.66501 2,4.06343 1.1,1.39842 2.014312,3.2694 2.031803,4.15773 0.01749,0.88833 0.692492,2.48865 1.5,3.55627 1.262271,1.66887 1.468197,13.06484 1.468197,81.25 l 0,79.30887 18,0 17.999995,0 0,-2.83052 c 0,-4.94524 4.38057,-11.97682 10.13703,-16.27172 2.9452,-2.19741 5.67972,-4.87335 6.07671,-5.94653 0.45865,-1.23985 1.65645,-1.95123 3.28542,-1.95123 1.56886,0 2.77344,-0.67905 3.10438,-1.75 1.18285,-3.82789 2.25778,-4.7702 5.98889,-5.25 7.35466,-0.94576 4.23897,-8 -3.53341,-8 -4.68764,0 -5.04454,-0.4596 -5.76306,-7.42141 -0.4914,-4.76115 -0.31284,-5.49919 1.5749,-6.50948 1.17103,-0.62671 2.12914,-1.78709 2.12914,-2.57861 0,-0.79153 1.40564,-2.16602 3.12364,-3.05444 2.98907,-1.54571 3.09636,-1.81433 2.4904,-6.23528 -0.34828,-2.54099 -1.07892,-5.06566 -1.62364,-5.61038 -0.54472,-0.54472 -0.9904,-3.8863 -0.9904,-7.42573 0,-5.57984 0.33234,-6.74333 2.5,-8.75225 1.375,-1.27431 2.5,-3.40831 2.5,-4.74223 0,-1.33391 0.675,-2.9855 1.5,-3.67019 0.825,-0.68469 1.5,-1.84896 1.5,-2.58726 0,-0.73831 0.90882,-1.82876 2.01959,-2.42322 1.8546,-0.99256 1.96635,-1.7192 1.36795,-8.89456 -0.44879,-5.38143 -0.29925,-8.03149 0.48041,-8.51335 0.62263,-0.3848 1.13205,-2.62622 1.13205,-4.98092 0,-3.77751 0.4252,-4.5838 3.61362,-6.8524 1.9875,-1.41412 4.1363,-3.6195 4.77512,-4.90085 0.63882,-1.28135 2.05019,-2.49267 3.13638,-2.69182 3.12062,-0.57217 5.47488,-3.22732 5.47488,-6.17461 0,-2.03184 0.99987,-3.40192 4,-5.48101 2.65259,-1.83824 4,-3.52708 4,-5.01356 0,-1.23285 0.675,-2.80175 1.5,-3.48644 0.825,-0.68469 1.5,-1.99979 1.5,-2.92244 0,-0.92266 0.3948,-2.10506 0.87734,-2.62756 1.19774,-1.29694 -0.34634,-21.319 -1.75255,-22.72521 -0.61863,-0.61863 -1.12479,-2.10469 -1.12479,-3.30235 0,-1.19765 -0.675,-2.73775 -1.5,-3.42244 -0.825,-0.68469 -1.5,-2.01135 -1.5,-2.94813 0,-0.93678 -1.125,-2.76012 -2.5,-4.05187 -1.375,-1.29175 -2.5,-3.06611 -2.5,-3.94304 0,-0.87692 -2.925,-4.91822 -6.5,-8.98066 -3.73526,-4.24456 -6.5,-8.30955 -6.5,-9.55696 0,-2.25317 -3.21052,-5.76622 -6.25,-6.83894 -1.50876,-0.53249 -1.75,-1.99559 -1.75,-10.61383 0,-8.74688 0.23409,-10.12148 1.87303,-10.99862 1.0376,-0.55531 2.37546,-2.99771 2.99946,-5.47583 0.61953,-2.46037 1.57666,-4.75168 2.12696,-5.09178 0.5503,-0.34011 1.00055,-1.48094 1.00055,-2.53519 0,-1.05424 0.89832,-3.39019 1.99626,-5.19098 1.73659,-2.84826 1.99675,-5.04687 2,-16.90173 0.003,-10.89011 0.30505,-13.87762 1.50374,-14.87244 0.825,-0.68469 1.5,-2.81194 1.5,-4.72722 0,-1.91528 1.125,-5.72215 2.5,-8.45971 2.61105,-5.19848 3.20196,-9.2612 1.5,-10.31307 -1.44123,-0.89073 -1.26851,-15.83149 0.2,-17.3 0.93333,-0.93333 0.93333,-1.46667 0,-2.4 -0.66,-0.66 -1.2,-2.43344 -1.2,-3.94098 0,-1.50754 -0.45,-3.0191 -1,-3.35902 -0.55,-0.33992 -1.01431,-3.62898 -1.0318,-7.30902 -0.0204,-4.29151 -0.55832,-7.38709 -1.5,-8.63211 -0.95303,-1.26002 -1.4682,-4.30136 -1.4682,-8.66764 l 0,-6.72651 3.75,-1.83236 c 2.32552,-1.13632 3.86668,-2.65113 4.05716,-3.98782 0.16894,-1.1855 1.85644,-3.75069 3.75,-5.70043 1.89356,-1.94974 3.44284,-4.49687 3.44284,-5.66029 0,-3.35645 1.88013,-5.9835 4.28518,-5.98756 1.21815,-0.002 3.67732,-0.89544 5.46482,-1.9853 2.72633,-1.66228 3.25512,-2.58816 3.2818,-5.74626 0.0175,-2.07059 0.6925,-4.63821 1.5,-5.70583 0.80751,-1.06762 1.4682,-2.66512 1.4682,-3.55 0,-0.88488 0.51477,-2.12364 1.14394,-2.75281 0.71614,-0.71614 1.18361,-5.55908 1.25,-12.950002 l 0.10606,-11.806058 3.58559,-0.300564 c 2.31966,-0.194446 4.03993,0.246882 4.87245,1.25 0.70777,0.85281 1.71636,1.550564 2.24133,1.550564 1.73548,0 6.80063,-5.809955 6.80063,-7.800632 0,-1.074963 0.675,-2.514679 1.5,-3.199368 0.825,-0.684689 1.5,-1.85875 1.5,-2.609025 0,-0.750274 1.54483,-2.009606 3.43296,-2.798516 2.66662,-1.114188 4.13819,-2.847195 6.59224,-7.76342 2.78525,-5.579717 3.19794,-7.493023 3.48575,-16.160462 0.23928,-7.206175 0.7487,-10.298003 1.90775,-11.578741 0.86971,-0.961025 1.5813,-3.174384 1.5813,-4.918577 l 0,-3.171259 -83.5,0 -83.499995,0 0,4.277759 c 0,3.040275 0.578567,4.773144 2,5.990213 1.660384,1.421665 2,2.949938 2,9 0,6.050062 0.339616,7.578335 2,9 2.751464,2.355877 2.78096,10.46948 0.05068,13.94047 -1.791479,2.277496 -1.973668,4.466345 -2.25,27.031913 -0.26596,21.718475 -0.502756,24.776805 -2.05068,26.485435 -1.397308,1.54238 -1.75,3.76815 -1.75,11.04393 0,5.01174 -0.45,9.39036 -1,9.73028 -0.642759,0.39725 -1,-3.18704 -1,-10.03325 0,-9.1371 0.284322,-11.01275 2,-13.19388 1.868539,-2.37546 2,-4.05678 2,-25.578988 0,-19.620985 0.234957,-23.296025 1.584746,-24.787525 0.87161,-0.963119 1.823854,-3.533808 2.116097,-5.712644 0.422977,-3.153525 0.09975,-4.393119 -1.584746,-6.077616 -1.779091,-1.779091 -2.116097,-3.312092 -2.116097,-9.625884 0,-6.272303 -0.329566,-7.791971 -2,-9.222241 -1.605756,-1.374891 -2,-2.949938 -2,-7.990213 l 0,-6.277759 192.339475,0 192.33949,0 1.13908,2.5 c 0.90111,1.977729 1.87473,2.5 4.66051,2.5 l 3.52144,0 0,4.877555 c 0,3.115654 -0.54184,5.327242 -1.5,6.122445 -1.00871,0.837152 -1.5,3.091175 -1.5,6.881898 0,4.554002 -0.38425,5.876976 -2,6.886029 -1.1,0.686961 -2,2.321424 -2,3.632139 0,1.687004 -0.7069,2.560538 -2.42003,2.990508 -3.40229,0.85392 -11.57997,9.291379 -11.57997,11.947827 0,1.199278 -0.9,2.742565 -2,3.429526 -1.60496,1.002315 -2,2.332028 -2,6.732073 0,4.400045 0.39504,5.729758 2,6.732073 1.18444,0.739695 2,2.332027 2,3.904882 0,1.783262 1.14995,3.665527 3.5,5.728901 l 3.5,3.073044 0,23.40486 0,23.40486 -3.5,3.8211 c -1.925,2.10162 -3.5,4.74993 -3.5,5.88515 0,1.13522 -0.9,2.6261 -2,3.31306 -1.50424,0.93941 -2,2.33202 -2,5.6181 0,2.66368 -0.5855,4.855 -1.5,5.61397 -0.825,0.68469 -1.5,2.06933 -1.5,3.07699 0,3.28849 -4.6845,6.92301 -8.92301,6.92301 -2.18636,0 -4.36673,0.64419 -5.07699,1.5 -0.98817,1.19067 -3.89005,1.5 -14.07176,1.5 l -12.82687,0 -3.04606,3.25 c -1.67533,1.7875 -3.04814,3.5875 -3.05068,4 -0.003,0.4125 -1.04169,0.75 -2.30921,0.75 -1.26752,0 -4.02408,1.575 -6.1257,3.5 -2.10161,1.925 -4.46957,3.5 -5.26213,3.5 -0.79257,0 -2.98601,1.17841 -4.87431,2.61869 -2.48558,1.89584 -3.43328,3.39998 -3.43328,5.44911 0,2.05961 -0.95316,3.55743 -3.5,5.5 -3.3302,2.54007 -3.5,2.96748 -3.5,8.81034 0,5.05776 -0.35273,6.36105 -2,7.38979 -1.82853,1.14193 -2.00136,2.34143 -2.01581,13.99054 l -0.0158,12.74153 -5.25382,5.75 c -3.74701,4.10086 -5.97957,5.75 -7.78421,5.75 -4.07195,0 -4.93036,1.75457 -4.93036,10.07756 0,5.60454 -0.40501,8.01368 -1.5,8.92244 -1.03515,0.8591 -1.5,3.14673 -1.5,7.3819 0,5.054 -0.35294,6.35742 -2,7.38603 -1.1,0.68696 -2,2.28178 -2,3.54404 0,1.52752 -1.83932,3.91637 -5.5,7.14323 -5.46181,4.81455 -5.5,4.88796 -5.5,10.57406 0,3.86969 -0.48626,6.12941 -1.5,6.97074 -0.825,0.68469 -1.5,2.43154 -1.5,3.8819 0,1.554 -0.82139,3.14997 -2,3.88603 -1.1,0.68696 -2,2.3151 -2,3.6181 0,1.30299 -0.675,2.92928 -1.5,3.61397 -0.825,0.68469 -1.5,2.20654 -1.5,3.3819 0,1.17535 -0.9,2.69907 -2,3.38603 -1.88449,1.17688 -2,2.33202 -2,20 0,17.66797 -0.11551,18.82312 -2,20 -1.63095,1.01854 -2,2.33202 -2,7.1181 0,3.99701 -0.47846,6.26617 -1.5,7.11397 -1.14345,0.94898 -1.5,3.53562 -1.5,10.8819 0,8.554 -0.22476,9.77737 -2,10.88603 -1.44017,0.8994 -2,2.33202 -2,5.1181 0,2.21923 -0.63963,4.39992 -1.5,5.11397 -0.825,0.68469 -1.5,2.43154 -1.5,3.8819 0,1.554 -0.82139,3.14997 -2,3.88603 -1.85316,1.15732 -2,2.33202 -2,16 0,13.66797 -0.14684,14.84268 -2,16 -1.63095,1.01854 -2,2.33202 -2,7.1181 0,3.99701 -0.47846,6.26617 -1.5,7.11397 -1.09737,0.91074 -1.5,3.32652 -1.5,9 0,5.67348 0.40263,8.08926 1.5,9 0.825,0.68469 1.50808,2.87729 1.51795,4.87244 0.0164,3.31491 1.13685,4.73612 13,16.4896 7.14013,7.07413 12.98205,13.03663 12.98205,13.25 0,0.21338 -49.95,0.38796 -111,0.38796 l -110.999995,0 0,-2.8 z M 278.56399,530.38749 c -1.89539,-2.04351 -4.31885,-4.37869 -5.38545,-5.18928 -1.06661,-0.81059 -2.54229,-2.17613 -3.27929,-3.03452 -6.7586,-7.87181 -9.28143,-11.51394 -9.28143,-13.3993 0,-1.21932 -0.9,-2.98754 -2,-3.92939 -1.70916,-1.46343 -2,-2.94994 -2,-10.22224 0,-7.17646 0.31336,-8.82315 2,-10.50979 1.44547,-1.44547 2,-3.33333 2,-6.80887 0,-2.68018 0.64991,-5.66813 1.4682,-6.75 1.13751,-1.50393 1.47536,-5.35977 1.5,-17.1197 0.0267,-12.72709 0.29758,-15.44436 1.67743,-16.8242 2.58388,-2.58389 5.35437,-8.64731 5.35437,-11.71846 0,-1.56086 0.88444,-3.55563 2,-4.5108 1.73324,-1.48404 2,-2.94994 2,-10.99021 0,-7.94443 0.28743,-9.56519 2,-11.27776 1.60835,-1.60835 2,-3.33333 2,-8.80887 0,-4.4387 0.51108,-7.48458 1.4682,-8.75 1.14645,-1.51575 1.47516,-5.4726 1.5,-18.05627 0.0271,-13.73962 0.28977,-16.46669 1.7818,-18.5 1.71687,-2.33971 3.89614,-6.67651 6.09786,-12.13486 0.6101,-1.5125 1.56891,-2.75 2.1307,-2.75 0.56179,0 1.02144,-1.3544 1.02144,-3.00979 0,-1.7723 0.82231,-3.71387 2,-4.72224 1.34549,-1.15204 2,-2.94994 2,-5.49384 0,-4.37482 2.24015,-8.87092 6.791,-13.62989 1.76495,-1.84566 3.209,-4.20816 3.209,-5.25 0,-1.04183 0.9,-2.79424 2,-3.89424 1.46667,-1.46667 2,-3.33333 2,-7 0,-3.66667 0.53333,-5.53333 2,-7 1.62319,-1.62319 2,-3.33333 2,-9.07692 0,-6.48853 0.24303,-7.31996 2.92308,-10 1.67772,-1.67772 3.99225,-2.92308 5.43261,-2.92308 1.61249,0 2.73145,-0.69921 3.13037,-1.95608 0.34146,-1.07584 1.94678,-3.07179 3.56739,-4.43544 l 2.94655,-2.47936 0,-12.37343 c 0,-9.3314 0.36096,-12.85066 1.4682,-14.31456 0.84836,-1.12164 1.48162,-4.17401 1.5,-7.23016 0.0288,-4.78434 0.40217,-5.66313 3.91321,-9.20942 2.13477,-2.15622 4.1522,-4.95116 4.48317,-6.21097 0.77043,-2.93264 8.29982,-10.79058 10.33941,-10.79058 0.85448,0 3.29695,-1.575 5.42769,-3.5 2.13074,-1.925 4.60574,-3.5 5.5,-3.5 0.89426,0 3.36926,-1.575 5.5,-3.5 l 3.87408,-3.5 10.77488,0 c 9.53739,0 10.97155,-0.2297 12.48733,-2 1.35984,-1.58818 2.94994,-2 7.72224,-2 5.13145,0 6.00979,-0.26437 6.00979,-1.80887 0,-0.99488 0.66069,-2.68238 1.4682,-3.75 0.8075,-1.06762 1.4825,-3.63303 1.5,-5.70092 0.0211,-2.49345 0.70542,-4.33656 2.0318,-5.47224 1.34655,-1.15295 2,-2.94994 2,-5.5 0,-2.55006 0.65345,-4.34705 2,-5.5 1.1,-0.94185 2,-2.42643 2,-3.29908 0,-0.87265 0.66069,-2.46014 1.4682,-3.52776 1.15317,-1.52464 1.46819,-5.48139 1.46819,-18.44113 0,-12.95974 -0.31502,-16.91649 -1.46819,-18.44113 -0.80751,-1.067621 -1.4682,-2.928366 -1.4682,-4.13499 0,-1.206623 -1.06186,-2.889618 -2.35969,-3.739988 -5.38069,-3.525566 -5.64031,-4.218757 -5.64031,-15.059903 l 0,-10.233155 3.5,-3.821109 c 1.925,-2.10161 3.5,-4.646337 3.5,-5.654948 0,-2.442725 4.81732,-6.875407 8.25,-7.591277 2.07092,-0.43188 2.75,-1.162398 2.75,-2.958287 0,-1.311634 0.9,-3.155392 2,-4.097241 1.53192,-1.311675 2,-2.949938 2,-7 0,-4.050062 0.46808,-5.688325 2,-7 1.1,-0.94185 2,-2.062445 2,-2.490213 0,-0.427767 -47.25,-0.777759 -105,-0.777759 l -105,0 0,5.535183 c 0,3.446388 -0.61898,6.479862 -1.64025,8.038525 -1.31849,2.01226 -1.5305,4.104696 -1.08075,10.666418 0.52075,7.597569 0.39192,8.362255 -1.85974,11.038201 -1.33059,1.581318 -2.41926,3.537944 -2.41926,4.348058 0,3.286235 -3.01361,7.217693 -6.04259,7.882968 -1.91739,0.421132 -3.40842,1.5467 -3.95569,2.986134 -0.4831,1.270629 -1.35611,2.605505 -1.94004,2.966391 -0.58392,0.360886 -1.06168,1.768721 -1.06168,3.128524 0,1.359802 -0.70947,2.744617 -1.5766,3.077367 -0.86714,0.33275 -2.00406,1.72928 -2.5265,3.103399 -0.91048,2.394741 -1.22094,2.476642 -7.48288,1.973993 l -6.533,-0.524406 0.681,10.166332 c 0.58311,8.705003 0.44792,10.359773 -0.94051,11.512063 -0.89183,0.74016 -1.62428,2.07814 -1.62767,2.97329 -0.003,0.89516 -0.67839,2.9165 -1.5,4.49187 -0.82161,1.57537 -1.49384,4.1302 -1.49384,5.67742 0,3.46157 -4.07029,6.95827 -8.09967,6.95827 -3.02506,0 -4.90033,2.28991 -4.90033,5.98382 0,1.16342 -1.575,3.73704 -3.5,5.71915 -1.925,1.98211 -3.5,4.42916 -3.5,5.43789 0,1.05221 -1.70516,2.91047 -4,4.35914 -4.4714,2.82267 -5.14879,5.77368 -2.49384,10.86431 0.82161,1.57537 1.49384,5.29397 1.49384,8.26357 0,2.96959 0.37974,6.18065 0.84387,7.13569 0.46413,0.95504 1.36413,2.74282 2,3.97286 1.4177,2.74241 1.53306,12.91258 0.15613,13.76357 -1.29836,0.80243 -1.29836,6.19757 0,7 0.55,0.33992 0.99589,3.62898 0.99086,7.30902 -0.007,5.07265 -0.60404,7.90032 -2.46873,11.69098 -1.35277,2.75 -2.47366,6.6324 -2.49086,8.62756 -0.0172,1.99515 -0.66542,4.15385 -1.4405,4.79711 -1.06574,0.88449 -1.49229,4.78901 -1.75,16.01936 -0.28509,12.42341 -0.62671,15.16547 -2.09077,16.78163 -0.9625,1.0625 -1.75,2.88233 -1.75,4.04406 0,1.16174 -0.45025,2.39051 -1.00055,2.73062 -0.5503,0.3401 -1.50743,2.63141 -2.12696,5.09178 -0.63795,2.53353 -1.95868,4.91882 -3.04562,5.50054 -1.62957,0.87212 -1.8745,1.95746 -1.62303,7.19211 0.2512,5.22898 0.63643,6.33396 2.53737,7.27794 2.77232,1.3767 8.25687,8.79543 8.26419,11.17863 0.003,0.96726 2.27464,3.94832 5.04818,6.62456 2.92879,2.82607 5.28757,6.08984 5.6267,7.78552 0.32116,1.60579 1.42448,3.36946 2.45182,3.91928 1.02735,0.54982 1.8679,1.68886 1.8679,2.53121 0,0.84234 1.071,2.96401 2.38,4.71481 2.85292,3.81582 3.90762,9.79431 4.0899,23.18328 0.12214,8.97192 -0.10063,10.32727 -2.16688,13.18328 -1.33791,1.84929 -2.30302,4.62096 -2.30302,6.614 0,2.87384 -0.64929,3.88067 -4,6.20272 -2.2,1.5246 -4,3.55936 -4,4.52169 0,3.42668 -2.8995,7.46739 -5.72963,7.98474 -1.86664,0.34123 -2.87048,1.20681 -3.07727,2.65343 -0.16879,1.18085 -2.08129,3.37665 -4.25,4.87957 -3.66459,2.53956 -3.9431,3.07196 -3.9431,7.53755 0,2.64274 -0.45923,5.0888 -1.0205,5.43569 -0.63427,0.392 -0.77525,3.02458 -0.37251,6.9556 0.59183,5.77651 0.46355,6.42361 -1.47949,7.46349 -1.24043,0.66386 -2.1275,2.11527 -2.1275,3.48098 0,1.2883 -0.675,2.90257 -1.5,3.58726 -0.825,0.68469 -1.5,2.33628 -1.5,3.67019 0,1.33392 -1.125,3.46792 -2.5,4.74223 -2.62613,2.43382 -3.28133,6.40625 -1.3716,8.31598 0.62062,0.62062 1.3406,4.19812 1.59997,7.95 0.45594,6.59531 0.36875,6.91903 -2.6284,9.75869 -1.70498,1.6154 -3.10274,3.6404 -3.10613,4.5 -0.003,0.8596 -0.676,2.84725 -1.49469,4.41699 -1.91841,3.6783 -1.22906,4.64591 3.30987,4.64595 3.00874,2e-5 4.19929,0.63709 6.44098,3.44657 4.8385,6.06404 2.80363,12.5534 -3.93637,12.5534 -2.27473,0 -3.59242,0.56295 -4.03847,1.72532 -1.0724,2.79464 -9.29888,10.27468 -11.29999,10.27468 -2.29277,0 -8.97517,7.98935 -8.97517,10.73055 0,1.11351 -0.675,2.58476 -1.5,3.26945 -0.825,0.68469 -1.5,1.86479 -1.5,2.62244 0,1.15936 13.57386,1.37756 85.69617,1.37756 l 85.69616,0 -3.44616,-3.71548 z M 47.328676,243.32413 c -0.542567,-7.30522 -0.765707,-7.88848 -4.142157,-10.82714 -3.133422,-2.72714 -3.568697,-3.67241 -3.568697,-7.75 0,-2.55421 0.45,-4.64402 1,-4.64402 0.55,0 1,1.74825 1,3.88499 0,2.9789 0.550344,4.24559 2.359689,5.43112 5.176828,3.39199 5.640311,4.43528 5.640311,12.6963 0,4.32826 -0.386029,8.10814 -0.857843,8.39973 -0.471813,0.2916 -1.1159,-2.94434 -1.431303,-7.19098 z m 0.304459,-41.04259 c -0.01197,-9.6343 0.311816,-12.64856 1.484687,-13.82143 0.94783,-0.94783 1.5,-3.40978 1.5,-6.68802 0,-4.10502 0.417503,-5.44876 2,-6.43705 1.856084,-1.15914 2,-2.33202 2,-16.29956 0,-9.77905 0.350253,-14.83408 1,-14.43251 0.585456,0.36183 0.997268,6.08628 0.993411,13.80902 -0.0057,11.4817 -0.264041,13.57972 -1.993411,16.19098 -1.249162,1.88617 -1.989268,4.6926 -1.993411,7.55887 -0.0036,2.50738 -0.667277,5.43238 -1.474786,6.5 -1.066183,1.40962 -1.481097,4.81618 -1.515312,12.44113 -0.02591,5.775 -0.483335,11.175 -1.016491,12 -0.65494,1.01345 -0.974341,-2.49668 -0.984687,-10.82143 z"
       id="path3026"
       inkscape:connector-curvature="0" />
    <path
       style="fill:#5791ca"
       d="m 76.284489,543.4363 c -0.366667,-0.36666 -0.666667,-2.16666 -0.666667,-4 l 0,-3.33333 15.5,0 15.499998,0 0,-3.83052 c 0,-5.8831 3.99424,-12.68858 10.13703,-17.27172 2.9452,-2.19741 5.67972,-4.87335 6.07671,-5.94653 0.45865,-1.23985 1.65645,-1.95123 3.28542,-1.95123 1.56886,0 2.77344,-0.67905 3.10438,-1.75 1.18285,-3.82789 2.25778,-4.7702 5.98889,-5.25 7.35466,-0.94576 4.23897,-8 -3.53341,-8 -4.68764,0 -5.04454,-0.4596 -5.76306,-7.42141 -0.4914,-4.76115 -0.31284,-5.49919 1.5749,-6.50948 1.17103,-0.62671 2.12914,-1.78709 2.12914,-2.57861 0,-0.79153 1.40564,-2.16602 3.12364,-3.05444 2.98907,-1.54571 3.09636,-1.81433 2.4904,-6.23528 -0.34828,-2.54099 -1.07892,-5.06566 -1.62364,-5.61038 -0.54472,-0.54472 -0.9904,-3.8863 -0.9904,-7.42573 0,-5.57984 0.33234,-6.74333 2.5,-8.75225 1.375,-1.27431 2.5,-3.40831 2.5,-4.74223 0,-1.33391 0.675,-2.9855 1.5,-3.67019 0.825,-0.68469 1.5,-1.84896 1.5,-2.58726 0,-0.73831 0.90882,-1.82876 2.01959,-2.42322 1.8546,-0.99256 1.96635,-1.7192 1.36795,-8.89456 -0.44879,-5.38143 -0.29925,-8.03149 0.48041,-8.51335 0.62263,-0.3848 1.13205,-2.62622 1.13205,-4.98092 0,-3.77751 0.4252,-4.5838 3.61362,-6.8524 1.9875,-1.41412 4.1363,-3.6195 4.77512,-4.90085 0.63882,-1.28135 2.05019,-2.49267 3.13638,-2.69182 3.12062,-0.57217 5.47488,-3.22732 5.47488,-6.17461 0,-2.03184 0.99987,-3.40192 4,-5.48101 2.65259,-1.83824 4,-3.52708 4,-5.01356 0,-1.23285 0.675,-2.80175 1.5,-3.48644 0.825,-0.68469 1.5,-1.99979 1.5,-2.92244 0,-0.92266 0.3948,-2.10506 0.87734,-2.62756 1.19774,-1.29694 -0.34634,-21.319 -1.75255,-22.72521 -0.61863,-0.61863 -1.12479,-2.10469 -1.12479,-3.30235 0,-1.19765 -0.675,-2.73775 -1.5,-3.42244 -0.825,-0.68469 -1.5,-2.01135 -1.5,-2.94813 0,-0.93678 -1.125,-2.76012 -2.5,-4.05187 -1.375,-1.29175 -2.5,-3.06611 -2.5,-3.94304 0,-0.87692 -2.925,-4.91822 -6.5,-8.98066 -3.73526,-4.24456 -6.5,-8.30955 -6.5,-9.55696 0,-2.25317 -3.21052,-5.76622 -6.25,-6.83894 -1.50876,-0.53249 -1.75,-1.99559 -1.75,-10.61383 0,-8.74688 0.23409,-10.12148 1.87303,-10.99862 1.0376,-0.55531 2.37546,-2.99771 2.99946,-5.47583 0.61953,-2.46037 1.57666,-4.75168 2.12696,-5.09178 0.5503,-0.34011 1.00055,-1.48094 1.00055,-2.53519 0,-1.05424 0.89832,-3.39019 1.99626,-5.19098 1.73659,-2.84826 1.99675,-5.04687 2,-16.90173 0.003,-10.89011 0.30505,-13.87762 1.50374,-14.87244 0.825,-0.68469 1.5,-2.81194 1.5,-4.72722 0,-1.91528 1.125,-5.72215 2.5,-8.45971 2.61105,-5.19848 3.20196,-9.2612 1.5,-10.31307 -1.44123,-0.89073 -1.26851,-15.83149 0.2,-17.3 0.93333,-0.93333 0.93333,-1.46667 0,-2.4 -0.66,-0.66 -1.2,-2.43344 -1.2,-3.94098 0,-1.50754 -0.45,-3.0191 -1,-3.35902 -0.55,-0.33992 -1.01431,-3.62898 -1.0318,-7.30902 -0.0204,-4.29151 -0.55832,-7.38709 -1.5,-8.63211 -0.95303,-1.26002 -1.4682,-4.30136 -1.4682,-8.66764 l 0,-6.72651 3.75,-1.83236 c 2.32552,-1.13632 3.86668,-2.65113 4.05716,-3.98782 0.16894,-1.1855 1.85644,-3.75069 3.75,-5.70043 1.89356,-1.94974 3.44284,-4.49687 3.44284,-5.66029 0,-3.35645 1.88013,-5.9835 4.28518,-5.98756 1.21815,-0.002 3.67732,-0.89544 5.46482,-1.9853 2.72633,-1.66228 3.25512,-2.58816 3.2818,-5.74626 0.0175,-2.07059 0.6925,-4.63821 1.5,-5.70583 0.80751,-1.06762 1.4682,-2.66512 1.4682,-3.55 0,-0.88488 0.51477,-2.12364 1.14394,-2.75281 0.71614,-0.71614 1.18361,-5.55908 1.25,-12.950002 l 0.10606,-11.806058 3.58559,-0.300564 c 2.31966,-0.194446 4.03993,0.246882 4.87245,1.25 0.70777,0.85281 1.71636,1.550564 2.24133,1.550564 1.73548,0 6.80063,-5.809955 6.80063,-7.800632 0,-1.074963 0.675,-2.514679 1.5,-3.199368 0.825,-0.684689 1.5,-1.85875 1.5,-2.609025 0,-0.750274 1.54483,-2.009606 3.43296,-2.798516 2.66662,-1.114188 4.13819,-2.847195 6.59224,-7.76342 2.78525,-5.579717 3.19794,-7.493023 3.48575,-16.160462 0.23199,-6.986693 0.76263,-10.314228 1.83391,-11.5 0.8291,-0.917717 1.65318,-3.468577 1.8313,-5.668577 0.22223,-2.744958 0.79448,-4 1.82384,-4 2.31824,0 2.6327,11.604741 0.40653,15.002317 -1.37212,2.094114 -1.58259,4.098512 -1.12753,10.737809 0.52075,7.597569 0.39192,8.362255 -1.85974,11.038201 -1.33059,1.581318 -2.41926,3.537944 -2.41926,4.348058 0,3.286235 -3.01361,7.217693 -6.04259,7.882968 -1.91739,0.421132 -3.40842,1.5467 -3.95569,2.986134 -0.4831,1.270629 -1.35611,2.605505 -1.94004,2.966391 -0.58392,0.360886 -1.06168,1.768721 -1.06168,3.128524 0,1.359802 -0.70947,2.744617 -1.5766,3.077367 -0.86714,0.33275 -2.00406,1.72928 -2.5265,3.103399 -0.91048,2.394741 -1.22094,2.476642 -7.48288,1.973993 l -6.533,-0.524406 0.681,10.166332 c 0.58311,8.705003 0.44792,10.359773 -0.94051,11.512063 -0.89183,0.74016 -1.62428,2.07814 -1.62767,2.97329 -0.003,0.89516 -0.67839,2.9165 -1.5,4.49187 -0.82161,1.57537 -1.49384,4.1302 -1.49384,5.67742 0,3.46157 -4.07029,6.95827 -8.09967,6.95827 -3.02506,0 -4.90033,2.28991 -4.90033,5.98382 0,1.16342 -1.575,3.73704 -3.5,5.71915 -1.925,1.98211 -3.5,4.42916 -3.5,5.43789 0,1.05221 -1.70516,2.91047 -4,4.35914 -4.4714,2.82267 -5.14879,5.77368 -2.49384,10.86431 0.82161,1.57537 1.49384,5.29397 1.49384,8.26357 0,2.96959 0.37974,6.18065 0.84387,7.13569 0.46413,0.95504 1.36413,2.74282 2,3.97286 1.4177,2.74241 1.53306,12.91258 0.15613,13.76357 -1.29836,0.80243 -1.29836,6.19757 0,7 0.55,0.33992 0.99589,3.62898 0.99086,7.30902 -0.007,5.07265 -0.60404,7.90032 -2.46873,11.69098 -1.35277,2.75 -2.47366,6.6324 -2.49086,8.62756 -0.0172,1.99515 -0.66542,4.15385 -1.4405,4.79711 -1.06574,0.88449 -1.49229,4.78901 -1.75,16.01936 -0.28509,12.42341 -0.62671,15.16547 -2.09077,16.78163 -0.9625,1.0625 -1.75,2.88233 -1.75,4.04406 0,1.16174 -0.45025,2.39051 -1.00055,2.73062 -0.5503,0.3401 -1.50743,2.63141 -2.12696,5.09178 -0.63795,2.53353 -1.95868,4.91882 -3.04562,5.50054 -1.62957,0.87212 -1.8745,1.95746 -1.62303,7.19211 0.2512,5.22898 0.63643,6.33396 2.53737,7.27794 2.77232,1.3767 8.25687,8.79543 8.26419,11.17863 0.003,0.96726 2.27464,3.94832 5.04818,6.62456 2.92879,2.82607 5.28757,6.08984 5.6267,7.78552 0.32116,1.60579 1.42448,3.36946 2.45182,3.91928 1.02735,0.54982 1.8679,1.68886 1.8679,2.53121 0,0.84234 1.071,2.96401 2.38,4.71481 2.85292,3.81582 3.90762,9.79431 4.0899,23.18328 0.12214,8.97192 -0.10063,10.32727 -2.16688,13.18328 -1.33791,1.84929 -2.30302,4.62096 -2.30302,6.614 0,2.87384 -0.64929,3.88067 -4,6.20272 -2.2,1.5246 -4,3.55936 -4,4.52169 0,3.42668 -2.8995,7.46739 -5.72963,7.98474 -1.86664,0.34123 -2.87048,1.20681 -3.07727,2.65343 -0.16879,1.18085 -2.08129,3.37665 -4.25,4.87957 -3.66459,2.53956 -3.9431,3.07196 -3.9431,7.53755 0,2.64274 -0.45923,5.0888 -1.0205,5.43569 -0.63427,0.392 -0.77525,3.02458 -0.37251,6.9556 0.59183,5.77651 0.46355,6.42361 -1.47949,7.46349 -1.24043,0.66386 -2.1275,2.11527 -2.1275,3.48098 0,1.2883 -0.675,2.90257 -1.5,3.58726 -0.825,0.68469 -1.5,2.33628 -1.5,3.67019 0,1.33392 -1.125,3.46792 -2.5,4.74223 -2.62613,2.43382 -3.28133,6.40625 -1.3716,8.31598 0.62062,0.62062 1.3406,4.19812 1.59997,7.95 0.45594,6.59531 0.36875,6.91903 -2.6284,9.75869 -1.70498,1.6154 -3.10274,3.6404 -3.10613,4.5 -0.003,0.8596 -0.676,2.84725 -1.49469,4.41699 -1.91841,3.6783 -1.22906,4.64591 3.30987,4.64595 3.00874,2e-5 4.19929,0.63709 6.44098,3.44657 4.89006,6.12866 2.78653,12.5534 -4.11013,12.5534 -2.11019,0 -3.42848,0.58852 -3.86471,1.72532 -1.0724,2.79464 -9.29888,10.27468 -11.29999,10.27468 -2.29277,0 -8.97517,7.98935 -8.97517,10.73055 0,1.11351 -0.675,2.58476 -1.5,3.26945 -0.825,0.68469 -1.5,2.31729 -1.5,3.628 l 0,2.38311 86.25,-0.25556 86.25,-0.25555 0.31955,-2.25 c 0.37561,-2.64469 1.96958,-2.9631 2.88544,-0.57639 0.82294,2.14454 3.47686,4.79846 5.6214,5.6214 0.92049,0.35322 1.67361,1.33134 1.67361,2.17361 0,0.84226 0.675,1.53138 1.5,1.53138 0.825,0 1.5,0.45 1.5,1 0,1.12887 -219.206166,1.4605 -220.333331,0.33333 z M 278.61782,528.09608 c -1.375,-1.582 -3.95943,-3.91514 -5.74317,-5.18474 -1.78374,-1.2696 -3.24839,-2.75837 -3.25477,-3.30837 -0.006,-0.55 -1.58447,-2.71254 -3.50684,-4.80565 -2.39149,-2.60389 -3.49522,-4.76499 -3.49522,-6.84362 0,-2.19697 -0.55366,-3.18276 -2,-3.56098 -1.81603,-0.4749 -2,-1.36402 -2,-9.66583 0,-8.05982 0.23691,-9.29078 2,-10.39185 1.63095,-1.01854 2,-2.33202 2,-7.1181 0,-3.99701 0.47846,-6.26617 1.5,-7.11397 1.21723,-1.01021 1.5,-4.21605 1.5,-17.00581 0,-14.91992 0.10672,-15.78884 2,-16.28394 1.32358,-0.34612 2,-1.36401 2,-3.00964 0,-1.36765 0.675,-2.74565 1.5,-3.06224 1.01085,-0.38789 1.5,-1.97485 1.5,-4.86644 0,-3.20783 0.5048,-4.60609 2,-5.53986 1.77787,-1.11029 2,-2.33202 2,-11 0,-8.66797 0.22213,-9.8897 2,-11 1.72528,-1.07745 2,-2.33202 2,-9.13356 0,-6.08598 0.34217,-8.01583 1.5,-8.46014 1.2537,-0.48109 1.5,-3.4288 1.5,-17.952 0,-16.1064 0.14617,-17.50868 2,-19.18637 1.1,-0.99549 2.01431,-2.52773 2.0318,-3.40499 0.0175,-0.87725 0.6925,-2.46852 1.5,-3.53614 0.80751,-1.06762 1.4682,-2.64687 1.4682,-3.50945 0,-0.86258 0.9,-2.13039 2,-2.81735 1.3582,-0.84821 2,-2.33202 2,-4.62391 0,-2.53389 0.49839,-3.50523 2,-3.89791 1.69257,-0.44262 2,-1.36401 2,-5.99419 0,-3.64331 0.50113,-5.88707 1.5,-6.71606 0.825,-0.68469 1.5,-1.65369 1.5,-2.15334 0,-0.49964 1.575,-2.35393 3.5,-4.12063 2.22173,-2.03903 3.5,-4.13121 3.5,-5.72856 0,-1.43337 0.86077,-3.05393 2,-3.7654 1.62337,-1.01381 2,-2.33202 2,-7 0,-4.66797 0.37663,-5.98619 2,-7 1.7236,-1.0764 2,-2.33202 2,-9.08556 0,-8.746 1.13,-10.71494 6.49261,-11.31285 2.0845,-0.23241 3.38427,-1.15468 4.28329,-3.03927 0.70988,-1.48809 2.6257,-3.65623 4.25739,-4.8181 l 2.96671,-2.11248 0,-13.32492 c 0,-10.92188 0.27051,-13.42872 1.5,-13.90052 1.11224,-0.4268 1.5013,-2.19939 1.50502,-6.85699 0.005,-6.09203 0.12545,-6.3836 4,-9.6724 2.5458,-2.16093 3.99498,-4.23589 3.99498,-5.72007 0,-1.42826 1.16027,-3.18686 3,-4.54703 1.65,-1.2199 3,-2.80837 3,-3.52994 0,-0.75027 1.12678,-1.31194 2.63192,-1.31194 1.7125,0 3.78506,-1.22268 5.93285,-3.5 1.81551,-1.925 4.11864,-3.50215 5.11808,-3.50478 0.99943,-0.003 3.52969,-1.57763 5.6228,-3.5 l 3.80565,-3.49522 11.53797,0 c 10.69697,0 11.57609,-0.14578 12.06098,-2 0.44229,-1.69132 1.36402,-2 5.97212,-2 6.59194,0 9.31763,-1.29086 9.31763,-4.41274 0,-1.2883 0.675,-2.90257 1.5,-3.58726 0.891,-0.73947 1.5,-2.92451 1.5,-5.3819 0,-3.054 0.52357,-4.46398 2,-5.38603 1.5049,-0.93982 2,-2.33202 2,-5.62391 0,-3.53389 0.38447,-4.47544 2,-4.89791 1.43682,-0.37574 2,-1.36401 2,-3.50964 0,-1.73229 0.62998,-3.22838 1.5,-3.56224 2.23861,-0.85903 2.23861,-36.417708 0,-37.276744 -0.92925,-0.356587 -1.5,-1.878583 -1.5,-4 0,-2.349632 -0.54925,-3.626268 -1.75,-4.0676 -0.9625,-0.353762 -2.10986,-1.239639 -2.54969,-1.968615 -0.43983,-0.728976 -1.45233,-1.325411 -2.25,-1.325411 -1.183,0 -1.45031,-2.11956 -1.45031,-11.5 0,-9.638523 0.24681,-11.5 1.52475,-11.5 0.83861,0 1.93586,-1.081287 2.43832,-2.402861 0.50246,-1.321573 1.39132,-2.698131 1.97525,-3.059017 0.58392,-0.360886 1.06168,-1.754598 1.06168,-3.097139 0,-1.465926 0.57933,-2.440983 1.45031,-2.440983 0.79767,0 1.81017,-0.635958 2.25,-1.41324 0.43983,-0.777281 2.14969,-1.564781 3.79969,-1.75 2.65527,-0.298063 3.03496,-0.7559 3.30426,-3.984317 0.2185,-2.619454 0.85268,-3.790975 2.25,-4.156381 1.66858,-0.436344 1.94685,-1.412436 1.95354,-6.852442 0.007,-5.604149 0.26918,-6.460189 2.25,-7.34362 1.23321,-0.55 4.0422,-0.775 6.2422,-0.5 3.90116,0.487644 4.00761,0.605248 4.30794,4.759149 0.22675,3.136146 -0.10283,4.416781 -1.25,4.856989 -1.18903,0.456274 -1.55794,2.133841 -1.55794,7.08447 0,5.583631 -0.27066,6.55741 -1.94425,6.995065 -1.29536,0.338742 -2.0463,1.537069 -2.25,3.590464 -0.24346,2.454086 -0.90483,3.24102 -3.24609,3.862367 -1.61718,0.429185 -3.32704,1.471348 -3.79969,2.315916 -0.47264,0.844569 -1.51199,1.53558 -2.30966,1.53558 -0.79767,0 -1.45031,0.689123 -1.45031,1.531385 0,0.842261 -0.675,1.790406 -1.5,2.106989 -0.87002,0.333859 -1.5,1.829942 -1.5,3.562234 0,2.145627 -0.56318,3.133906 -2,3.509643 -1.76853,0.462482 -2,1.364016 -2,7.789749 0,6.425733 0.23147,7.327267 2,7.789749 1.4563,0.38083 2,1.364016 2,3.616631 0,3.11301 2.22404,6.198144 5.32639,7.388626 1.49946,0.575398 1.67361,3.100514 1.67361,24.267224 0,22.78401 -0.0712,23.64363 -2,24.14802 -1.1,0.28766 -2,1.15965 -2,1.93777 0,0.77811 -0.675,1.67377 -1.5,1.99035 -0.87002,0.33386 -1.5,1.82995 -1.5,3.56224 0,2.14563 -0.56318,3.1339 -2,3.50964 -1.65776,0.43352 -2,1.36402 -2,5.43777 0,3.44618 -0.44821,5.08675 -1.5,5.49035 -0.87002,0.33386 -1.5,1.82995 -1.5,3.56224 0,2.09737 -0.56796,3.13515 -1.90755,3.48546 -1.04915,0.27436 -2.13202,1.35723 -2.40638,2.40638 -0.40664,1.55502 -1.4204,1.90755 -5.48546,1.90755 -3.51007,0 -5.15707,0.44416 -5.56224,1.5 -0.47075,1.22678 -2.94097,1.5 -13.56153,1.5 -12.37426,0 -13.09898,0.11305 -15.38608,2.40015 -1.32008,1.32008 -2.67641,3.12008 -3.01407,4 -0.36908,0.9618 -1.78022,1.59985 -3.53832,1.59985 -1.67697,0 -3.16992,0.63984 -3.5,1.5 -0.31658,0.825 -1.21224,1.5 -1.99035,1.5 -0.77812,0 -1.65011,0.9 -1.93777,2 -0.37574,1.43682 -1.36401,2 -3.50964,2 -1.73229,0 -3.22838,0.62998 -3.56224,1.5 -0.31658,0.825 -1.26472,1.5 -2.10699,1.5 -1.0468,0 -1.53138,0.9838 -1.53138,3.10905 0,3.18598 -3.39962,7.84119 -5.75,7.87367 -0.8809,0.0122 -1.25,2.11188 -1.25,7.1109 0,6.25262 -0.23712,7.15563 -2,7.61663 -1.87462,0.49022 -2,1.36402 -2,13.93777 0,10.58251 -0.29589,13.52829 -1.40146,13.95254 -0.7708,0.29578 -1.62867,1.40666 -1.90638,2.46861 -0.27771,1.06196 -1.22205,1.93083 -2.09854,1.93083 -0.87649,0 -1.59362,0.49907 -1.59362,1.10905 0,2.42349 -4.52974,5.85655 -7.75,5.87367 l -3.25,0.0173 0,8.53138 c 0,6.66097 -0.32886,8.65759 -1.5,9.10699 -1.13528,0.43565 -1.5,2.27439 -1.5,7.56224 0,6.14563 -0.24075,7.04959 -2,7.50964 -1.35465,0.35425 -2.00557,1.37274 -2.01728,3.15638 -0.0171,2.61319 -3.73909,7.13337 -5.87367,7.13337 -0.60998,0 -1.10905,0.71713 -1.10905,1.59362 0,0.87649 -0.9,1.82897 -2,2.11663 -1.73779,0.45444 -2,1.36402 -2,6.93777 0,4.77951 -0.38238,6.56148 -1.5,6.99035 -0.93646,0.35936 -1.5,1.8855 -1.5,4.06224 0,2.64563 -0.48242,3.61278 -2,4.00964 -1.42293,0.37211 -2,1.36402 -2,3.43777 0,1.6684 -0.6414,3.16088 -1.5,3.49035 -0.87002,0.33386 -1.5,1.82995 -1.5,3.56224 0,2.14563 -0.56318,3.1339 -2,3.50964 -1.91364,0.50043 -2,1.36402 -2,20 0,18.63599 -0.0864,19.49957 -2,20 -1.73779,0.45444 -2,1.36402 -2,6.93777 0,4.77951 -0.38238,6.56148 -1.5,6.99035 -1.20138,0.46102 -1.5,2.66328 -1.5,11.06224 0,9.64563 -0.1604,10.52857 -2,11.00964 -1.619,0.42338 -2,1.36402 -2,4.93777 0,3.00173 -0.4801,4.59898 -1.5,4.99035 -0.93646,0.35936 -1.5,1.8855 -1.5,4.06224 0,2.64563 -0.48242,3.61278 -2,4.00964 -1.89132,0.49459 -2,1.36402 -2,16 0,14.63599 -0.10868,15.50541 -2,16 -1.73779,0.45444 -2,1.36402 -2,6.93777 0,4.77951 -0.38238,6.56148 -1.5,6.99035 -1.19193,0.45739 -1.5,2.58543 -1.5,10.36163 0,7.7762 0.30807,9.90424 1.5,10.36163 0.98707,0.37877 1.5,1.94211 1.5,4.5718 0,2.97275 0.51221,4.27033 2,5.06657 1.1,0.5887 2,1.67705 2,2.41855 0,0.7415 0.9,1.58354 2,1.8712 1.1,0.28766 2,1.19199 2,2.00964 0,0.81765 0.675,1.74565 1.5,2.06224 0.825,0.31658 1.5,1.03972 1.5,1.60699 0,1.72532 -1.37263,1.04741 -4,-1.97551 z M 49.045637,372.8602 c -1.139702,-1.24148 -2.363079,-3.04473 -2.718615,-4.00723 -0.355537,-0.9625 -1.110554,-1.75 -1.677815,-1.75 -2.029957,0 -0.98636,-1.86729 1.218615,-2.18045 1.611005,-0.2288 2.339863,-1.10054 2.566422,-3.06955 0.308627,-2.68225 0.474927,-2.75 6.75,-2.75 6.145357,0 6.433578,0.1088 6.433578,2.42857 0,1.33572 0.675,3.10357 1.5,3.92857 2.281399,2.2814 1.87976,2.64286 -2.936642,2.64286 -4.274496,0 -4.448093,0.11878 -4.75,3.25 -0.391465,4.06009 -3.391824,4.76829 -6.385543,1.50723 z"
       id="path3024"
       inkscape:connector-curvature="0" />
    <path
       style="fill:#517bd7"
       d="m 76.284489,543.4363 c -0.366667,-0.36666 -0.666667,-2.16666 -0.666667,-4 l 0,-3.33333 15.75,-0.0176 c 8.662498,-0.01 55.349998,-0.12218 103.749998,-0.25 l 88,-0.23239 0.31955,-2.25 c 0.37561,-2.64469 1.96958,-2.9631 2.88544,-0.57639 0.82294,2.14454 3.47686,4.79846 5.6214,5.6214 0.92049,0.35322 1.67361,1.33134 1.67361,2.17361 0,0.84226 0.675,1.53138 1.5,1.53138 0.825,0 1.5,0.45 1.5,1 0,1.12887 -219.206166,1.4605 -220.333331,0.33333 z m 31.333331,-10.71249 c 0,-3.46388 4.90166,-13.62084 6.57331,-13.62084 1.85609,0 1.8212,1.42769 -0.0733,3 -0.825,0.68469 -1.5,2.25969 -1.5,3.5 0,1.24031 -0.675,2.81531 -1.5,3.5 -0.825,0.68469 -1.5,2.31479 -1.5,3.62244 0,1.30766 -0.45,2.37756 -1,2.37756 -0.55,0 -1,-1.07062 -1,-2.37916 z m 171,-4.62773 c -1.375,-1.582 -3.95943,-3.91514 -5.74317,-5.18474 -1.78374,-1.2696 -3.24839,-2.75837 -3.25477,-3.30837 -0.006,-0.55 -1.58447,-2.71254 -3.50684,-4.80565 -2.39149,-2.60389 -3.49522,-4.76499 -3.49522,-6.84362 0,-2.19697 -0.55366,-3.18276 -2,-3.56098 -1.81603,-0.4749 -2,-1.36402 -2,-9.66583 0,-8.05982 0.23691,-9.29078 2,-10.39185 1.63095,-1.01854 2,-2.33202 2,-7.1181 0,-3.99701 0.47846,-6.26617 1.5,-7.11397 1.21723,-1.01021 1.5,-4.21605 1.5,-17.00581 0,-14.91992 0.10672,-15.78884 2,-16.28394 1.32358,-0.34612 2,-1.36401 2,-3.00964 0,-1.36765 0.675,-2.74565 1.5,-3.06224 1.01085,-0.38789 1.5,-1.97485 1.5,-4.86644 0,-3.20783 0.5048,-4.60609 2,-5.53986 1.77787,-1.11029 2,-2.33202 2,-11 0,-8.66797 0.22213,-9.8897 2,-11 1.72528,-1.07745 2,-2.33202 2,-9.13356 0,-6.08598 0.34217,-8.01583 1.5,-8.46014 1.2537,-0.48109 1.5,-3.4288 1.5,-17.952 0,-16.1064 0.14617,-17.50868 2,-19.18637 1.1,-0.99549 2.01431,-2.52773 2.0318,-3.40499 0.0175,-0.87725 0.6925,-2.46852 1.5,-3.53614 0.80751,-1.06762 1.4682,-2.64687 1.4682,-3.50945 0,-0.86258 0.9,-2.13039 2,-2.81735 1.3582,-0.84821 2,-2.33202 2,-4.62391 0,-2.53389 0.49839,-3.50523 2,-3.89791 1.69257,-0.44262 2,-1.36401 2,-5.99419 0,-3.64331 0.50113,-5.88707 1.5,-6.71606 0.825,-0.68469 1.5,-1.65369 1.5,-2.15334 0,-0.49964 1.575,-2.35393 3.5,-4.12063 2.22173,-2.03903 3.5,-4.13121 3.5,-5.72856 0,-1.43337 0.86077,-3.05393 2,-3.7654 1.62337,-1.01381 2,-2.33202 2,-7 0,-4.66797 0.37663,-5.98619 2,-7 1.7236,-1.0764 2,-2.33202 2,-9.08556 0,-8.746 1.13,-10.71494 6.49261,-11.31285 2.0845,-0.23241 3.38427,-1.15468 4.28329,-3.03927 0.70988,-1.48809 2.6257,-3.65623 4.25739,-4.8181 l 2.96671,-2.11248 0,-13.32492 c 0,-10.92188 0.27051,-13.42872 1.5,-13.90052 1.11224,-0.4268 1.5013,-2.19939 1.50502,-6.85699 0.005,-6.09203 0.12545,-6.3836 4,-9.6724 2.5458,-2.16093 3.99498,-4.23589 3.99498,-5.72007 0,-1.42826 1.16027,-3.18686 3,-4.54703 1.65,-1.2199 3,-2.80837 3,-3.52994 0,-0.75027 1.12678,-1.31194 2.63192,-1.31194 1.7125,0 3.78506,-1.22268 5.93285,-3.5 1.81551,-1.925 4.11864,-3.50215 5.11808,-3.50478 0.99943,-0.003 3.52969,-1.57763 5.6228,-3.5 l 3.80565,-3.49522 11.53797,0 c 10.69697,0 11.57609,-0.14578 12.06098,-2 0.44229,-1.69132 1.36402,-2 5.97212,-2 6.59194,0 9.31763,-1.29086 9.31763,-4.41274 0,-1.2883 0.675,-2.90257 1.5,-3.58726 0.891,-0.73947 1.5,-2.92451 1.5,-5.3819 0,-3.054 0.52357,-4.46398 2,-5.38603 1.5049,-0.93982 2,-2.33202 2,-5.62391 0,-3.53389 0.38447,-4.47544 2,-4.89791 1.43682,-0.37574 2,-1.36401 2,-3.50964 0,-1.73229 0.62998,-3.22838 1.5,-3.56224 2.23861,-0.85903 2.23861,-36.417708 0,-37.276744 -0.92925,-0.356587 -1.5,-1.878583 -1.5,-4 0,-2.349632 -0.54925,-3.626268 -1.75,-4.0676 -0.9625,-0.353762 -2.10986,-1.239639 -2.54969,-1.968615 -0.43983,-0.728976 -1.45233,-1.325411 -2.25,-1.325411 -1.183,0 -1.45031,-2.11956 -1.45031,-11.5 0,-9.638523 0.24681,-11.5 1.52475,-11.5 0.83861,0 1.93586,-1.081287 2.43832,-2.402861 0.50246,-1.321573 1.39132,-2.698131 1.97525,-3.059017 0.58392,-0.360886 1.06168,-1.754598 1.06168,-3.097139 0,-1.465926 0.57933,-2.440983 1.45031,-2.440983 0.79767,0 1.81017,-0.635958 2.25,-1.41324 0.43983,-0.777281 2.14969,-1.564781 3.79969,-1.75 2.65527,-0.298063 3.03496,-0.7559 3.30426,-3.984317 0.2185,-2.619454 0.85268,-3.790975 2.25,-4.156381 1.66858,-0.436344 1.94685,-1.412436 1.95354,-6.852442 0.007,-5.604149 0.26918,-6.460189 2.25,-7.34362 1.23321,-0.55 4.0422,-0.775 6.2422,-0.5 3.90116,0.487644 4.00761,0.605248 4.30794,4.759149 0.22675,3.136146 -0.10283,4.416781 -1.25,4.856989 -1.18903,0.456274 -1.55794,2.133841 -1.55794,7.08447 0,5.583631 -0.27066,6.55741 -1.94425,6.995065 -1.29536,0.338742 -2.0463,1.537069 -2.25,3.590464 -0.24346,2.454086 -0.90483,3.24102 -3.24609,3.862367 -1.61718,0.429185 -3.32704,1.471348 -3.79969,2.315916 -0.47264,0.844569 -1.51199,1.53558 -2.30966,1.53558 -0.79767,0 -1.45031,0.689123 -1.45031,1.531385 0,0.842261 -0.675,1.790406 -1.5,2.106989 -0.87002,0.333859 -1.5,1.829942 -1.5,3.562234 0,2.145627 -0.56318,3.133906 -2,3.509643 -1.76853,0.462482 -2,1.364016 -2,7.789749 0,6.425733 0.23147,7.327267 2,7.789749 1.4563,0.38083 2,1.364016 2,3.616631 0,3.11301 2.22404,6.198144 5.32639,7.388626 1.49946,0.575398 1.67361,3.100514 1.67361,24.267224 0,22.78401 -0.0712,23.64363 -2,24.14802 -1.1,0.28766 -2,1.15965 -2,1.93777 0,0.77811 -0.675,1.67377 -1.5,1.99035 -0.87002,0.33386 -1.5,1.82995 -1.5,3.56224 0,2.14563 -0.56318,3.1339 -2,3.50964 -1.65776,0.43352 -2,1.36402 -2,5.43777 0,3.44618 -0.44821,5.08675 -1.5,5.49035 -0.87002,0.33386 -1.5,1.82995 -1.5,3.56224 0,2.09737 -0.56796,3.13515 -1.90755,3.48546 -1.04915,0.27436 -2.13202,1.35723 -2.40638,2.40638 -0.40664,1.55502 -1.4204,1.90755 -5.48546,1.90755 -3.51007,0 -5.15707,0.44416 -5.56224,1.5 -0.47075,1.22678 -2.94097,1.5 -13.56153,1.5 -12.37426,0 -13.09898,0.11305 -15.38608,2.40015 -1.32008,1.32008 -2.67641,3.12008 -3.01407,4 -0.36908,0.9618 -1.78022,1.59985 -3.53832,1.59985 -1.67697,0 -3.16992,0.63984 -3.5,1.5 -0.31658,0.825 -1.21224,1.5 -1.99035,1.5 -0.77812,0 -1.65011,0.9 -1.93777,2 -0.37574,1.43682 -1.36401,2 -3.50964,2 -1.73229,0 -3.22838,0.62998 -3.56224,1.5 -0.31658,0.825 -1.26472,1.5 -2.10699,1.5 -1.0468,0 -1.53138,0.9838 -1.53138,3.10905 0,3.18598 -3.39962,7.84119 -5.75,7.87367 -0.8809,0.0122 -1.25,2.11188 -1.25,7.1109 0,6.25262 -0.23712,7.15563 -2,7.61663 -1.87462,0.49022 -2,1.36402 -2,13.93777 0,10.58251 -0.29589,13.52829 -1.40146,13.95254 -0.7708,0.29578 -1.62867,1.40666 -1.90638,2.46861 -0.27771,1.06196 -1.22205,1.93083 -2.09854,1.93083 -0.87649,0 -1.59362,0.49907 -1.59362,1.10905 0,2.42349 -4.52974,5.85655 -7.75,5.87367 l -3.25,0.0173 0,8.53138 c 0,6.66097 -0.32886,8.65759 -1.5,9.10699 -1.13528,0.43565 -1.5,2.27439 -1.5,7.56224 0,6.14563 -0.24075,7.04959 -2,7.50964 -1.35465,0.35425 -2.00557,1.37274 -2.01728,3.15638 -0.0171,2.61319 -3.73909,7.13337 -5.87367,7.13337 -0.60998,0 -1.10905,0.71713 -1.10905,1.59362 0,0.87649 -0.9,1.82897 -2,2.11663 -1.73779,0.45444 -2,1.36402 -2,6.93777 0,4.77951 -0.38238,6.56148 -1.5,6.99035 -0.93646,0.35936 -1.5,1.8855 -1.5,4.06224 0,2.64563 -0.48242,3.61278 -2,4.00964 -1.42293,0.37211 -2,1.36402 -2,3.43777 0,1.6684 -0.6414,3.16088 -1.5,3.49035 -0.87002,0.33386 -1.5,1.82995 -1.5,3.56224 0,2.14563 -0.56318,3.1339 -2,3.50964 -1.91364,0.50043 -2,1.36402 -2,20 0,18.63599 -0.0864,19.49957 -2,20 -1.73779,0.45444 -2,1.36402 -2,6.93777 0,4.77951 -0.38238,6.56148 -1.5,6.99035 -1.20138,0.46102 -1.5,2.66328 -1.5,11.06224 0,9.64563 -0.1604,10.52857 -2,11.00964 -1.619,0.42338 -2,1.36402 -2,4.93777 0,3.00173 -0.4801,4.59898 -1.5,4.99035 -0.93646,0.35936 -1.5,1.8855 -1.5,4.06224 0,2.64563 -0.48242,3.61278 -2,4.00964 -1.89132,0.49459 -2,1.36402 -2,16 0,14.63599 -0.10868,15.50541 -2,16 -1.73779,0.45444 -2,1.36402 -2,6.93777 0,4.77951 -0.38238,6.56148 -1.5,6.99035 -1.19193,0.45739 -1.5,2.58543 -1.5,10.36163 0,7.7762 0.30807,9.90424 1.5,10.36163 0.98707,0.37877 1.5,1.94211 1.5,4.5718 0,2.97275 0.51221,4.27033 2,5.06657 1.1,0.5887 2,1.67705 2,2.41855 0,0.7415 0.9,1.58354 2,1.8712 1.1,0.28766 2,1.19199 2,2.00964 0,0.81765 0.675,1.74565 1.5,2.06224 0.825,0.31658 1.5,1.03972 1.5,1.60699 0,1.72532 -1.37263,1.04741 -4,-1.97551 z m -162.5,-10.99311 c 0.33992,-0.55 0.81648,-1 1.05902,-1 0.24254,0 0.44098,0.45 0.44098,1 0,0.55 -0.47656,1 -1.05902,1 -0.58246,0 -0.7809,-0.45 -0.44098,-1 z m 4.5,-2.93261 c 0,-0.58707 0.46114,-1.06739 1.02475,-1.06739 0.56361,0 1.45248,-1.125 1.97525,-2.5 0.91034,-2.39437 3.35169,-3.35801 4.36277,-1.72204 0.26444,0.42788 -0.2715,1.72995 -1.19098,2.8935 -1.89318,2.3957 -6.17179,4.05668 -6.17179,2.39593 z m 10.05245,-8.78221 c -0.062,-2.61632 2.61815,-4.28518 6.88181,-4.28518 2.85062,0 3.06574,-0.25144 3.06574,-3.58333 0,-4.04844 2.26402,-4.37697 2.8426,-0.41249 0.41832,2.86643 -3.16992,5.94143 -6.97063,5.97358 -1.57568,0.0133 -3.25651,0.92321 -4.19755,2.27224 l -1.56952,2.25 -0.0525,-2.21482 z m 1.95247,-14.18537 c -4.48253,-0.59814 -4.49759,-0.61362 -5.39438,-5.54797 -0.81503,-4.48447 -0.69836,-5.08158 1.24508,-6.37197 1.17941,-0.7831 2.14438,-2.02809 2.14438,-2.76666 0,-0.73856 0.9,-1.82451 2,-2.41321 2.02517,-1.08384 2.69576,-0.19185 1.16528,1.55 -1.5965,1.817 -4.35134,10.52275 -3.79148,11.98171 0.3192,0.83184 1.84197,1.46829 3.51303,1.46829 1.62228,0 3.6614,0.27314 4.53138,0.60699 1.87349,0.71892 2.13091,2.45899 0.33179,2.24282 -0.6875,-0.0826 -3.27279,-0.42011 -5.74508,-0.75 z m 3.99508,-23.63193 c 0,-1.94266 -0.675,-5.14762 -1.5,-7.12212 -2.40482,-5.75554 -1.97485,-12.17634 1,-14.93334 1.375,-1.27431 2.5,-3.40831 2.5,-4.74223 0,-1.33391 0.675,-2.9855 1.5,-3.67019 0.825,-0.68469 1.5,-1.86479 1.5,-2.62244 0,-0.75766 0.45,-1.37756 1,-1.37756 1.50708,0 1.20023,4.58893 -0.39539,5.91318 -0.76747,0.63694 -1.68683,2.71158 -2.04304,4.6103 -0.35883,1.91272 -1.52033,3.91927 -2.6046,4.49955 -2.37615,1.27167 -2.56395,5.70855 -0.48581,11.47697 1.67114,4.63867 1.98667,11.5 0.52884,11.5 -0.55,0 -1,-1.58945 -1,-3.53212 z m 8.63244,-43.51278 c -0.38794,-4.1741 -0.2427,-7.81481 0.35641,-8.93426 0.55613,-1.03915 1.01115,-3.65774 1.01115,-5.8191 0,-3.41121 0.49481,-4.2735 3.75,-6.53498 2.0625,-1.43288 4.28814,-3.47397 4.94587,-4.53575 1.2382,-1.99886 7.27723,-5.49124 8.09,-4.67847 1.31748,1.31747 -1.04265,3.54746 -3.75449,3.54746 -2.5203,0 -3.03138,0.39856 -3.03138,2.364 0,1.62009 -1.22989,3.21631 -3.90838,5.0725 -3.44334,2.38624 -3.98951,3.32455 -4.59027,7.88601 -0.37505,2.84762 -0.67848,8.21499 -0.67429,11.92749 0.004,3.7125 -0.34057,6.75 -0.76612,6.75 -0.42556,0 -1.06838,-3.1702 -1.4285,-7.0449 z m 18.36756,-34.76008 c 0,-2.28152 0.87786,-3.53137 4,-5.69502 2.75691,-1.91054 4,-3.50667 4,-5.136 0,-1.3002 0.45,-2.364 1,-2.364 0.55,0 1,1.2888 1,2.864 0,2.21266 -0.90968,3.49441 -4,5.636 -2.2,1.5246 -4,3.58424 -4,4.57698 0,0.99274 -0.45,2.0831 -1,2.42302 -0.57955,0.35818 -1,-0.61095 -1,-2.30498 z M 49.045637,372.8602 c -1.139702,-1.24148 -2.363079,-3.04473 -2.718615,-4.00723 -0.355537,-0.9625 -1.110554,-1.75 -1.677815,-1.75 -2.029957,0 -0.98636,-1.86729 1.218615,-2.18045 1.611005,-0.2288 2.339863,-1.10054 2.566422,-3.06955 0.308627,-2.68225 0.474927,-2.75 6.75,-2.75 6.145357,0 6.433578,0.1088 6.433578,2.42857 0,1.33572 0.675,3.10357 1.5,3.92857 2.281399,2.2814 1.87976,2.64286 -2.936642,2.64286 -4.274496,0 -4.448093,0.11878 -4.75,3.25 -0.391465,4.06009 -3.391824,4.76829 -6.385543,1.50723 z m 126.072183,-1.75723 c 0.33992,-0.55 0.81648,-1 1.05902,-1 0.24254,0 0.44098,0.45 0.44098,1 0,0.55 -0.47656,1 -1.05902,1 -0.58246,0 -0.7809,-0.45 -0.44098,-1 z m 1.13963,-6.61253 c -0.3518,-2.56664 -0.63963,-6.98358 -0.63963,-9.81543 0,-5.20251 -2.74498,-14.71702 -4.85454,-16.82658 -0.63,-0.63 -1.14546,-1.88572 -1.14546,-2.79047 0,-0.90476 -0.88851,-2.44911 -1.97447,-3.43189 -1.08596,-0.98278 -2.2607,-2.74002 -2.61054,-3.90498 -0.63307,-2.10817 -8.16085,-11.80982 -9.66686,-12.45847 -1.18137,-0.50882 -3.74813,-5.81593 -3.74813,-7.74975 0,-1.84442 -2.23174,-3.94782 -5.75,-5.41934 -2.09668,-0.87693 -2.25,-1.55361 -2.25,-9.93063 0,-7.91434 0.23515,-9.11541 1.96604,-10.04175 1.08131,-0.57871 2.4647,-2.9041 3.07418,-5.16754 0.60948,-2.26344 1.47115,-4.84329 1.91482,-5.733 4.88471,-9.79539 5.04496,-10.56903 5.04496,-24.35473 0,-10.23437 0.33321,-13.79456 1.37175,-14.65647 0.75447,-0.62615 1.59228,-3.09495 1.86181,-5.48621 0.26953,-2.39127 1.50726,-6.38451 2.75051,-8.87388 1.77137,-3.54683 2.10261,-5.36131 1.53095,-8.38624 -0.64029,-3.38801 -0.84721,-11.50421 -0.51271,-20.11011 0.15269,-3.92828 -1.06665,-10.17173 -2.1128,-10.81829 -0.48923,-0.30236 -0.88951,-3.47474 -0.88951,-7.04974 0,-4.07869 0.37251,-6.26978 1,-5.88197 0.55,0.33992 1,3.20695 1,6.37119 0,3.7906 0.71349,7.2299 2.09157,10.0822 1.59042,3.29179 1.93199,5.31352 1.42555,8.43783 -0.81493,5.02746 -0.80762,11.30518 0.0218,18.69189 0.53272,4.7446 0.23895,6.38723 -1.95601,10.93716 -1.42058,2.94472 -2.58287,7.01472 -2.58287,9.04444 0,2.02972 -0.63324,4.21594 -1.4072,4.85827 -1.05624,0.8766 -1.4927,4.71062 -1.75,15.37245 -0.2623,10.86902 -0.73236,14.90904 -2.00176,17.20457 -2.40059,4.34105 -5.84108,13.11757 -5.84108,14.9002 0,0.84119 -0.91919,2.02137 -2.04264,2.62262 -1.8128,0.97018 -2.00971,1.90133 -1.75,8.27537 0.27394,6.72331 0.46834,7.26617 3.04264,8.49657 1.5125,0.7229 2.75,1.96482 2.75,2.75981 0,0.79498 0.35298,1.44543 0.78439,1.44543 1.23558,0 4.21561,5.58758 4.21561,7.90429 0,1.15264 0.39706,2.09571 0.88235,2.09571 1.84311,0 9.00868,8.22739 9.63023,11.05726 0.35749,1.62765 1.51341,3.42146 2.5687,3.98624 1.0553,0.56478 1.91872,1.66605 1.91872,2.44727 0,0.78123 1.06329,2.98726 2.36288,4.9023 2.69227,3.96729 3.79075,10.43942 3.80739,22.43269 0.0132,9.52392 -0.6,11.35145 -1.53064,4.56171 z M 157.24811,161.85297 c -0.83587,-3.11901 -0.75278,-10.04159 0.13502,-11.25 0.40408,-0.55 2.08469,-1.69004 3.73469,-2.53342 1.65,-0.84338 3.1337,-2.4538 3.2971,-3.57871 0.16341,-1.12491 1.73527,-3.58487 3.49301,-5.46658 1.75775,-1.88171 3.64905,-5.20406 4.2029,-7.38299 0.90202,-3.54873 1.41873,-4.04657 4.95687,-4.7759 5.17085,-1.06589 7.24456,-3.07121 7.83642,-7.57799 0.55925,-4.25855 2.90287,-10.77358 4.42198,-12.29269 0.66142,-0.66142 0.85829,-4.96273 0.5372,-11.736984 -0.44159,-9.316671 -0.28357,-10.878236 1.22773,-12.132501 1.51824,-1.26003 2.10581,-1.226471 4.71171,0.269109 1.63744,0.939761 3.65031,1.708656 4.47304,1.708656 1.69711,0 7.34204,-5.299138 7.34204,-6.892283 0,-0.575372 0.93026,-2.830879 2.06725,-5.012239 1.45296,-2.787558 2.92024,-4.153457 4.93777,-4.59658 2.36474,-0.519385 3.47409,-1.896289 6.29614,-7.814684 3.07961,-6.458535 3.42904,-8.069927 3.45938,-15.952763 0.0243,-6.3146 0.48232,-9.453157 1.6366,-11.214817 0.88157,-1.345447 1.60286,-3.8121 1.60286,-5.481451 0,-1.669351 0.45,-3.035183 1,-3.035183 1.55934,0 1.17441,7.762046 -0.55033,11.097337 -1.09855,2.124353 -1.49592,5.467126 -1.3636,11.470868 0.1425,6.465401 -0.18259,8.88261 -1.37214,10.202323 -0.85739,0.95121 -2.43516,3.964829 -3.50615,6.696933 -1.59554,4.070223 -2.5198,5.115819 -5.11704,5.788831 -1.95715,0.507148 -3.51361,1.72575 -4.06857,3.1854 -0.49434,1.300216 -1.37656,2.6593 -1.96049,3.020186 -0.58392,0.360886 -1.06168,1.551903 -1.06168,2.646705 0,1.094802 -1.50796,3.543244 -3.35102,5.440983 -3.72182,3.832234 -7.79461,4.533599 -10.75723,1.852473 -3.44407,-3.116846 -4.21394,-0.829349 -3.48992,10.369532 0.52974,8.193719 0.3785,10.837389 -0.69257,12.105719 -1.73788,2.05796 -4.70926,10.0609 -4.70926,12.68364 0,3.53277 -2.87058,6.39474 -7.09086,7.06959 -4.13275,0.66085 -5.90914,2.57899 -5.90914,6.38066 0,1.17847 -1.40446,3.54713 -3.12102,5.26369 -1.71657,1.71656 -3.57746,4.43035 -4.13533,6.03065 -0.66003,1.89336 -2.22991,3.41753 -4.4947,4.36382 l -3.4804,1.4542 0.42954,5.93823 c 0.42889,5.92939 -0.42737,7.94373 -1.5678,3.68823 z"
       id="path3022"
       inkscape:connector-curvature="0" />
    <path
       style="fill:#11cbc3"
       d="m 76.284489,543.4363 c -0.366667,-0.36666 -0.666667,-2.16666 -0.666667,-4 l 0,-3.33333 15.75,-0.0176 c 8.662498,-0.01 55.349998,-0.12218 103.749998,-0.25 l 88,-0.23239 0.31955,-2.25 c 0.37561,-2.64469 1.96958,-2.9631 2.88544,-0.57639 0.82294,2.14454 3.47686,4.79846 5.6214,5.6214 0.92049,0.35322 1.67361,1.33134 1.67361,2.17361 0,0.84226 0.675,1.53138 1.5,1.53138 0.825,0 1.5,0.45 1.5,1 0,1.12887 -219.206166,1.4605 -220.333331,0.33333 z M 278.61782,528.09608 c -1.375,-1.582 -3.95943,-3.91514 -5.74317,-5.18474 -1.78374,-1.2696 -3.24839,-2.75837 -3.25477,-3.30837 -0.006,-0.55 -1.58447,-2.71254 -3.50684,-4.80565 -2.39149,-2.60389 -3.49522,-4.76499 -3.49522,-6.84362 0,-2.19697 -0.55366,-3.18276 -2,-3.56098 -1.81603,-0.4749 -2,-1.36402 -2,-9.66583 0,-8.05982 0.23691,-9.29078 2,-10.39185 1.63095,-1.01854 2,-2.33202 2,-7.1181 0,-3.99701 0.47846,-6.26617 1.5,-7.11397 1.21723,-1.01021 1.5,-4.21605 1.5,-17.00581 0,-14.91992 0.10672,-15.78884 2,-16.28394 1.32358,-0.34612 2,-1.36401 2,-3.00964 0,-1.36765 0.675,-2.74565 1.5,-3.06224 1.01085,-0.38789 1.5,-1.97485 1.5,-4.86644 0,-3.20783 0.5048,-4.60609 2,-5.53986 1.77787,-1.11029 2,-2.33202 2,-11 0,-8.66797 0.22213,-9.8897 2,-11 1.72528,-1.07745 2,-2.33202 2,-9.13356 0,-6.08598 0.34217,-8.01583 1.5,-8.46014 1.2537,-0.48109 1.5,-3.4288 1.5,-17.952 0,-16.1064 0.14617,-17.50868 2,-19.18637 1.1,-0.99549 2.01431,-2.52773 2.0318,-3.40499 0.0175,-0.87725 0.6925,-2.46852 1.5,-3.53614 0.80751,-1.06762 1.4682,-2.64687 1.4682,-3.50945 0,-0.86258 0.9,-2.13039 2,-2.81735 1.3582,-0.84821 2,-2.33202 2,-4.62391 0,-2.53389 0.49839,-3.50523 2,-3.89791 1.69257,-0.44262 2,-1.36401 2,-5.99419 0,-3.64331 0.50113,-5.88707 1.5,-6.71606 0.825,-0.68469 1.5,-1.65369 1.5,-2.15334 0,-0.49964 1.575,-2.35393 3.5,-4.12063 2.22173,-2.03903 3.5,-4.13121 3.5,-5.72856 0,-1.43337 0.86077,-3.05393 2,-3.7654 1.62337,-1.01381 2,-2.33202 2,-7 0,-4.66797 0.37663,-5.98619 2,-7 1.7236,-1.0764 2,-2.33202 2,-9.08556 0,-8.746 1.13,-10.71494 6.49261,-11.31285 2.0845,-0.23241 3.38427,-1.15468 4.28329,-3.03927 0.70988,-1.48809 2.6257,-3.65623 4.25739,-4.8181 l 2.96671,-2.11248 0,-13.32492 c 0,-10.92188 0.27051,-13.42872 1.5,-13.90052 1.11224,-0.4268 1.5013,-2.19939 1.50502,-6.85699 0.005,-6.09203 0.12545,-6.3836 4,-9.6724 2.5458,-2.16093 3.99498,-4.23589 3.99498,-5.72007 0,-1.42826 1.16027,-3.18686 3,-4.54703 1.65,-1.2199 3,-2.80837 3,-3.52994 0,-0.75027 1.12678,-1.31194 2.63192,-1.31194 1.7125,0 3.78506,-1.22268 5.93285,-3.5 1.81551,-1.925 4.11864,-3.50215 5.11808,-3.50478 0.99943,-0.003 3.52969,-1.57763 5.6228,-3.5 l 3.80565,-3.49522 11.53797,0 c 10.69697,0 11.57609,-0.14578 12.06098,-2 0.44229,-1.69132 1.36402,-2 5.97212,-2 6.59194,0 9.31763,-1.29086 9.31763,-4.41274 0,-1.2883 0.675,-2.90257 1.5,-3.58726 0.891,-0.73947 1.5,-2.92451 1.5,-5.3819 0,-3.054 0.52357,-4.46398 2,-5.38603 1.5049,-0.93982 2,-2.33202 2,-5.62391 0,-3.53389 0.38447,-4.47544 2,-4.89791 1.43682,-0.37574 2,-1.36401 2,-3.50964 0,-1.73229 0.62998,-3.22838 1.5,-3.56224 2.23861,-0.85903 2.23861,-36.417708 0,-37.276744 -0.92925,-0.356587 -1.5,-1.878583 -1.5,-4 0,-2.349632 -0.54925,-3.626268 -1.75,-4.0676 -0.9625,-0.353762 -2.10986,-1.239639 -2.54969,-1.968615 -0.43983,-0.728976 -1.45233,-1.325411 -2.25,-1.325411 -1.183,0 -1.45031,-2.11956 -1.45031,-11.5 0,-9.638523 0.24681,-11.5 1.52475,-11.5 0.83861,0 1.93586,-1.081287 2.43832,-2.402861 0.50246,-1.321573 1.39132,-2.698131 1.97525,-3.059017 0.58392,-0.360886 1.06168,-1.754598 1.06168,-3.097139 0,-1.465926 0.57933,-2.440983 1.45031,-2.440983 0.79767,0 1.81017,-0.635958 2.25,-1.41324 0.43983,-0.777281 2.14969,-1.564781 3.79969,-1.75 2.65527,-0.298063 3.03496,-0.7559 3.30426,-3.984317 0.2185,-2.619454 0.85268,-3.790975 2.25,-4.156381 1.66858,-0.436344 1.94685,-1.412436 1.95354,-6.852442 0.007,-5.604149 0.26918,-6.460189 2.25,-7.34362 1.23321,-0.55 4.0422,-0.775 6.2422,-0.5 3.90116,0.487644 4.00761,0.605248 4.30794,4.759149 0.22675,3.136146 -0.10283,4.416781 -1.25,4.856989 -1.18903,0.456274 -1.55794,2.133841 -1.55794,7.08447 0,5.583631 -0.27066,6.55741 -1.94425,6.995065 -1.29536,0.338742 -2.0463,1.537069 -2.25,3.590464 -0.24346,2.454086 -0.90483,3.24102 -3.24609,3.862367 -1.61718,0.429185 -3.32704,1.471348 -3.79969,2.315916 -0.47264,0.844569 -1.51199,1.53558 -2.30966,1.53558 -0.79767,0 -1.45031,0.689123 -1.45031,1.531385 0,0.842261 -0.675,1.790406 -1.5,2.106989 -0.87002,0.333859 -1.5,1.829942 -1.5,3.562234 0,2.145627 -0.56318,3.133906 -2,3.509643 -1.76853,0.462482 -2,1.364016 -2,7.789749 0,6.425733 0.23147,7.327267 2,7.789749 1.4563,0.38083 2,1.364016 2,3.616631 0,3.11301 2.22404,6.198144 5.32639,7.388626 1.49946,0.575398 1.67361,3.100514 1.67361,24.267224 0,22.78401 -0.0712,23.64363 -2,24.14802 -1.1,0.28766 -2,1.15965 -2,1.93777 0,0.77811 -0.675,1.67377 -1.5,1.99035 -0.87002,0.33386 -1.5,1.82995 -1.5,3.56224 0,2.14563 -0.56318,3.1339 -2,3.50964 -1.65776,0.43352 -2,1.36402 -2,5.43777 0,3.44618 -0.44821,5.08675 -1.5,5.49035 -0.87002,0.33386 -1.5,1.82995 -1.5,3.56224 0,2.09737 -0.56796,3.13515 -1.90755,3.48546 -1.04915,0.27436 -2.13202,1.35723 -2.40638,2.40638 -0.40664,1.55502 -1.4204,1.90755 -5.48546,1.90755 -3.51007,0 -5.15707,0.44416 -5.56224,1.5 -0.47075,1.22678 -2.94097,1.5 -13.56153,1.5 -12.37426,0 -13.09898,0.11305 -15.38608,2.40015 -1.32008,1.32008 -2.67641,3.12008 -3.01407,4 -0.36908,0.9618 -1.78022,1.59985 -3.53832,1.59985 -1.67697,0 -3.16992,0.63984 -3.5,1.5 -0.31658,0.825 -1.21224,1.5 -1.99035,1.5 -0.77812,0 -1.65011,0.9 -1.93777,2 -0.37574,1.43682 -1.36401,2 -3.50964,2 -1.73229,0 -3.22838,0.62998 -3.56224,1.5 -0.31658,0.825 -1.26472,1.5 -2.10699,1.5 -1.0468,0 -1.53138,0.9838 -1.53138,3.10905 0,3.18598 -3.39962,7.84119 -5.75,7.87367 -0.8809,0.0122 -1.25,2.11188 -1.25,7.1109 0,6.25262 -0.23712,7.15563 -2,7.61663 -1.87462,0.49022 -2,1.36402 -2,13.93777 0,10.58251 -0.29589,13.52829 -1.40146,13.95254 -0.7708,0.29578 -1.62867,1.40666 -1.90638,2.46861 -0.27771,1.06196 -1.22205,1.93083 -2.09854,1.93083 -0.87649,0 -1.59362,0.49907 -1.59362,1.10905 0,2.42349 -4.52974,5.85655 -7.75,5.87367 l -3.25,0.0173 0,8.53138 c 0,6.66097 -0.32886,8.65759 -1.5,9.10699 -1.13528,0.43565 -1.5,2.27439 -1.5,7.56224 0,6.14563 -0.24075,7.04959 -2,7.50964 -1.35465,0.35425 -2.00557,1.37274 -2.01728,3.15638 -0.0171,2.61319 -3.73909,7.13337 -5.87367,7.13337 -0.60998,0 -1.10905,0.71713 -1.10905,1.59362 0,0.87649 -0.9,1.82897 -2,2.11663 -1.73779,0.45444 -2,1.36402 -2,6.93777 0,4.77951 -0.38238,6.56148 -1.5,6.99035 -0.93646,0.35936 -1.5,1.8855 -1.5,4.06224 0,2.64563 -0.48242,3.61278 -2,4.00964 -1.42293,0.37211 -2,1.36402 -2,3.43777 0,1.6684 -0.6414,3.16088 -1.5,3.49035 -0.87002,0.33386 -1.5,1.82995 -1.5,3.56224 0,2.14563 -0.56318,3.1339 -2,3.50964 -1.91364,0.50043 -2,1.36402 -2,20 0,18.63599 -0.0864,19.49957 -2,20 -1.73779,0.45444 -2,1.36402 -2,6.93777 0,4.77951 -0.38238,6.56148 -1.5,6.99035 -1.20138,0.46102 -1.5,2.66328 -1.5,11.06224 0,9.64563 -0.1604,10.52857 -2,11.00964 -1.619,0.42338 -2,1.36402 -2,4.93777 0,3.00173 -0.4801,4.59898 -1.5,4.99035 -0.93646,0.35936 -1.5,1.8855 -1.5,4.06224 0,2.64563 -0.48242,3.61278 -2,4.00964 -1.89132,0.49459 -2,1.36402 -2,16 0,14.63599 -0.10868,15.50541 -2,16 -1.73779,0.45444 -2,1.36402 -2,6.93777 0,4.77951 -0.38238,6.56148 -1.5,6.99035 -1.19193,0.45739 -1.5,2.58543 -1.5,10.36163 0,7.7762 0.30807,9.90424 1.5,10.36163 0.98707,0.37877 1.5,1.94211 1.5,4.5718 0,2.97275 0.51221,4.27033 2,5.06657 1.1,0.5887 2,1.67705 2,2.41855 0,0.7415 0.9,1.58354 2,1.8712 1.1,0.28766 2,1.19199 2,2.00964 0,0.81765 0.675,1.74565 1.5,2.06224 0.825,0.31658 1.5,1.03972 1.5,1.60699 0,1.72532 -1.37263,1.04741 -4,-1.97551 z M 49.045637,372.8602 c -1.139702,-1.24148 -2.363079,-3.04473 -2.718615,-4.00723 -0.355537,-0.9625 -1.110554,-1.75 -1.677815,-1.75 -2.029957,0 -0.98636,-1.86729 1.218615,-2.18045 1.611005,-0.2288 2.339863,-1.10054 2.566422,-3.06955 0.308627,-2.68225 0.474927,-2.75 6.75,-2.75 6.145357,0 6.433578,0.1088 6.433578,2.42857 0,1.33572 0.675,3.10357 1.5,3.92857 2.281399,2.2814 1.87976,2.64286 -2.936642,2.64286 -4.274496,0 -4.448093,0.11878 -4.75,3.25 -0.391465,4.06009 -3.391824,4.76829 -6.385543,1.50723 z"
       id="path3020"
       inkscape:connector-curvature="0" />
    <path
       style="fill:#0db8b6"
       d="m 76.617822,540.60297 0,-2.5 15.606989,0 c 12.305959,0 15.502629,-0.27194 15.113609,-1.28571 -0.28767,-0.74966 0.24576,-1.28572 1.2794,-1.28572 1.04072,0 1.56746,0.53505 1.27557,1.2957 -0.40491,1.05518 16.29746,1.29004 89.97854,1.26526 49.76167,-0.0167 91.21154,0.25192 92.11082,0.59701 0.89929,0.34509 1.63507,1.21679 1.63507,1.93712 0,0.72032 0.5625,1.53665 1.25,1.81406 0.6875,0.27741 -48.1375,0.53991 -108.5,0.58333 l -109.749998,0.079 0,-2.5 z M 267.36782,514.23101 c -1.82248,-2.17471 -2.75,-4.43323 -2.75,-6.69629 0,-2.3318 -0.6343,-3.81093 -2,-4.66382 -1.7305,-1.08072 -2,-2.33203 -2,-9.28624 0,-6.79972 0.30794,-8.30087 2,-9.74966 1.5614,-1.33691 2.00697,-2.97559 2.0318,-7.47224 0.0192,-3.47112 0.6152,-6.5311 1.5,-7.70092 1.13153,-1.49602 1.4682,-5.21084 1.4682,-16.20031 0,-10.7483 0.32536,-14.45608 1.32143,-15.05887 2.02693,-1.22664 5.67857,-9.56218 5.67857,-12.9624 0,-1.6672 0.9,-4.06898 2,-5.33729 1.6854,-1.94328 2,-3.74136 2,-11.43077 0,-7.88726 0.27124,-9.35699 2,-10.8372 1.55655,-1.33276 2,-2.94994 2,-7.29367 0,-3.62775 0.52501,-6.10623 1.5,-7.08122 1.21979,-1.21979 1.5,-4.79045 1.5,-19.11412 0,-15.59056 0.20851,-17.85129 1.81496,-19.67857 0.99823,-1.13545 2.66534,-4.08945 3.70469,-6.56445 1.03934,-2.475 2.69761,-5.57319 3.68503,-6.88486 0.98743,-1.31167 1.79532,-3.34092 1.79532,-4.50945 0,-1.16853 0.9,-2.68666 2,-3.37362 1.66555,-1.04015 2,-2.33202 2,-7.72534 l 0,-6.47632 4.94305,-3.76521 c 3.62264,-2.75942 4.95826,-4.45839 5,-6.36021 0.0313,-1.42726 0.95695,-3.4095 2.05695,-4.40499 1.58391,-1.43342 2,-3.07997 2,-7.91444 0,-4.97917 0.36117,-6.33002 1.95928,-7.32806 1.64434,-1.0269 2.00602,-2.55249 2.25,-9.49055 0.28025,-7.96934 0.38072,-8.27911 2.79072,-8.60461 2.84224,-0.38389 7,-3.85066 7,-5.83665 0,-0.72913 0.5671,-1.32569 1.26022,-1.32569 0.69312,0 2.49312,-1.14321 4,-2.54047 2.71216,-2.51485 2.73978,-2.6699 2.73978,-15.37755 0,-10.01224 0.32006,-13.10272 1.45448,-14.0442 0.91106,-0.75612 1.56489,-3.50474 1.75,-7.35682 0.27397,-5.70121 0.52973,-6.2967 3.507,-8.16533 2.43023,-1.52529 3.22086,-2.74544 3.25003,-5.01563 0.0282,-2.19515 0.9632,-3.73778 3.48509,-5.75 1.8956,-1.5125 3.97854,-2.75 4.62877,-2.75 0.65023,0 2.92557,-1.575 5.05631,-3.5 2.13074,-1.925 4.71769,-3.5 5.74876,-3.5 1.03107,0 2.43487,-0.675 3.11956,-1.5 0.68469,-0.825 2.03731,-1.5 3.00581,-1.5 0.96851,0 1.99628,-0.9 2.28394,-2 0.48799,-1.86607 1.36401,-2 13.08145,-2 11.53498,0 12.64566,-0.16299 13.6288,-2 0.81428,-1.5215 2.09382,-2 5.34809,-2 3.38147,0 4.84072,-0.58764 6.96482,-2.80472 1.4779,-1.54259 2.68709,-3.73749 2.68709,-4.87755 0,-1.14006 0.675,-2.63304 1.5,-3.31773 0.84176,-0.6986 1.5,-2.87846 1.5,-4.96746 0,-2.45257 0.68232,-4.34006 2,-5.53254 1.1,-0.99549 2,-2.79997 2,-4.00995 0,-1.26345 1.38352,-3.34534 3.25,-4.89053 l 3.25,-2.69055 0.5,-23.20449 0.5,-23.20448 2.25,2.25 c 1.2375,1.2375 2.7,2.25 3.25,2.25 0.63946,0 1,8.83333 1,24.5 0,21.11111 -0.20748,24.5 -1.5,24.5 -0.825,0 -1.5,0.68912 -1.5,1.53138 0,0.84227 -0.66276,1.78571 -1.4728,2.09656 -0.81004,0.31084 -1.76012,2.09671 -2.11129,3.96861 -0.35117,1.8719 -1.21093,3.40345 -1.91057,3.40345 -1.4738,0 -2.47217,3.10528 -2.49169,7.75 -0.008,1.7875 -0.44326,3.25 -0.96834,3.25 -0.52507,0 -1.25016,1.575 -1.61129,3.5 -0.37606,2.00457 -1.24995,3.5 -2.04531,3.5 -0.76379,0 -1.38871,0.61775 -1.38871,1.37277 0,0.92042 -1.6827,1.53446 -5.10659,1.86345 -2.80862,0.26987 -5.39924,0.96419 -5.75692,1.54293 -0.38279,0.61936 -5.99557,1.18978 -13.64341,1.38655 -12.70639,0.32692 -13.05376,0.39598 -15.74308,3.12975 -1.5125,1.5375 -2.75,3.17492 -2.75,3.63871 0,0.46379 -1.53155,1.13058 -3.40345,1.48175 -1.8719,0.35117 -3.65777,1.30125 -3.96861,2.11129 -0.31085,0.81004 -1.25429,1.4728 -2.09656,1.4728 -0.84226,0 -1.53138,0.62492 -1.53138,1.38871 0,0.78786 -1.47257,1.66496 -3.40345,2.0272 -1.8719,0.35117 -3.65777,1.30125 -3.96861,2.11129 -0.31085,0.81004 -1.2339,1.4728 -2.05124,1.4728 -0.92676,0 -1.74819,1.41139 -2.18252,3.75 -0.64563,3.47638 -3.03458,6.63013 -5.69373,7.51652 -0.62768,0.20922 -1.29188,3.50864 -1.52038,7.55251 -0.2801,4.95705 -0.80223,7.18097 -1.68593,7.18097 -2.09103,0 -2.49414,2.5184 -2.49414,15.58179 0,6.83001 -0.39752,12.41821 -0.88337,12.41821 -0.48585,0 -1.11872,0.9 -1.40638,2 -0.28766,1.1 -1.24014,2 -2.11663,2 -0.87649,0 -1.59362,0.57499 -1.59362,1.27776 0,2.00941 -3.36512,4.38055 -7.25164,5.10967 -4.30355,0.80735 -4.74836,1.81586 -4.74836,10.76579 0,4.87968 -0.4528,7.44244 -1.5,8.48964 -0.99776,0.99776 -1.5,3.49555 -1.5,7.45995 0,4.26276 -0.40975,6.1172 -1.43889,6.51211 -0.79139,0.30369 -1.75177,1.97664 -2.13416,3.71768 -0.65761,2.99407 -3.73182,6.6674 -5.57996,6.6674 -0.46584,0 -0.84699,0.68912 -0.84699,1.53138 0,0.84227 -0.7875,1.82194 -1.75,2.17706 -2.70953,0.9997 -3.21818,2.34285 -3.23469,8.54156 -0.008,3.1625 -0.45999,5.75 -1.00349,5.75 -0.5435,0 -1.27602,1.8 -1.62781,4 -0.37347,2.33557 -1.19175,4 -1.96651,4 -0.72978,0 -1.62235,1.575 -1.98348,3.5 -0.36113,1.925 -1.03613,3.5 -1.5,3.5 -0.46387,0 -1.13887,1.575 -1.5,3.5 -0.36113,1.925 -1.22904,3.5 -1.92868,3.5 -2.07692,0 -2.47732,3.57547 -2.49169,22.25 -0.0111,14.43942 -0.27166,17.75 -1.39702,17.75 -1.71259,0 -2.58514,3.07279 -2.60298,9.16667 -0.008,2.83445 -0.50442,4.82982 -1.26365,5.08223 -0.86609,0.28794 -1.35474,3.69192 -1.59102,11.08334 -0.25185,7.87804 -0.67899,10.66776 -1.63337,10.66776 -1.37862,0 -2.48958,3.0169 -2.51196,6.82143 -0.008,1.27678 -0.68865,2.99643 -1.51365,3.82143 -0.825,0.825 -1.5,2.81785 -1.5,4.42857 0,1.82677 -0.52046,2.92857 -1.38337,2.92857 -2.11688,0 -2.58813,3.30405 -2.60298,18.25 -0.011,11.07966 -0.28418,13.75 -1.40666,13.75 -1.89338,0 -2.60699,2.23177 -2.60699,8.15322 0,3.23496 -0.56117,5.5508 -1.59575,6.58539 -2.04517,2.04517 -1.69879,17.84359 0.41993,19.15284 0.79509,0.49133 1.19466,2.15677 1,4.16818 l -0.32418,3.3499 -2.75,-3.28149 z M 48.770889,372.50337 c -1.004904,-1.13665 -1.13052,-2.71406 -0.494687,-6.21196 l 0.852246,-4.68844 5.244687,-0.30226 c 3.07456,-0.17719 5.244687,0.11702 5.244687,0.71105 0,0.55731 0.919732,1.87016 2.043849,2.91743 2.038241,1.89892 2.032972,1.90588 -1.920342,2.53804 -3.384235,0.54116 -4.06062,1.07293 -4.623305,3.63482 -0.740585,3.37186 -3.97389,4.08571 -6.347135,1.40132 z M 425.86782,90.437991 c -1.7875,-1.931808 -3.25,-4.302729 -3.25,-5.268712 0,-0.965984 -0.9,-2.570823 -2,-3.566309 -1.58967,-1.438627 -2,-3.079967 -2,-8 0,-4.920033 0.41033,-6.561373 2,-8 1.1,-0.995486 2,-2.540222 2,-3.432747 0,-0.892524 0.7875,-2.35227 1.75,-3.24388 0.9625,-0.89161 2.69612,-2.755323 3.85249,-4.141585 1.15637,-1.386261 3.40637,-2.669271 5,-2.851132 2.2853,-0.260792 2.96225,-0.889732 3.2039,-2.976702 0.16852,-1.455325 1.18102,-3.437569 2.25,-4.404987 1.51773,-1.37353 1.94532,-3.094457 1.95141,-7.853955 0.007,-5.637335 0.20991,-6.188875 2.69937,-7.345012 1.48036,-0.6875 3.72685,-1.25 4.99219,-1.25 2.05359,0 2.30064,0.474284 2.30064,4.416667 0,2.442225 -0.51462,4.588208 -1.15117,4.800391 -0.63315,0.211049 -1.36391,3.061049 -1.62392,6.333333 -0.32215,4.054403 -1.07035,6.519468 -2.34882,7.738564 -1.03185,0.983925 -1.87609,2.896425 -1.87609,4.25 0,1.798373 -0.54116,2.461045 -2.00979,2.461045 -1.10538,0 -2.78039,0.9 -3.72224,2 -0.94185,1.1 -2.28744,2 -2.99021,2 -0.70277,0 -1.27776,0.689123 -1.27776,1.531385 0,0.842261 -0.66276,1.785709 -1.4728,2.096551 -0.81004,0.310842 -1.76012,2.096718 -2.11129,3.968615 -0.35117,1.871897 -1.21093,3.403449 -1.91057,3.403449 -1.45085,0 -2.47803,3.108873 -2.47803,7.5 0,4.494575 1.0376,7.5 2.58932,7.5 0.87041,0 1.38337,1.112413 1.38337,3 0,1.65 -0.1125,2.965665 -0.25,2.923699 -0.1375,-0.04197 -1.7125,-1.656871 -3.5,-3.588678 z"
       id="path3018"
       inkscape:connector-curvature="0" />
  </g>
</svg>
